<svg width="54" height="53" viewBox="0 0 54 53" fill="none" xmlns="http://www.w3.org/2000/svg">
<rect x="0.631546" y="0.7118" width="52.807" height="52.1906" rx="26.0953" fill="#FFDE06"/>
<path d="M25.2225 36.4701C27.0629 35.7057 26.6597 33.5984 25.7291 32.2662C24.8089 30.9014 23.5371 29.9623 22.255 29.056C21.3402 28.4472 20.5234 27.6878 19.8356 26.8067C19.546 26.4464 18.9567 25.7803 19.5564 25.6493C20.1664 25.5183 21.2211 26.1516 21.7587 26.3918C22.6996 26.8067 23.6302 27.2872 24.4987 27.8549L25.543 25.9987C23.93 24.8741 21.8621 23.8804 19.939 23.5856C18.843 23.4109 17.6849 23.6511 17.3127 24.9068C16.9818 25.9878 17.5092 27.0797 18.1089 27.9314C19.5254 29.9296 21.7277 30.8904 23.3717 32.6156C23.7232 32.976 24.1471 33.4018 24.3539 33.9041C24.5711 34.3845 24.5194 34.4173 24.0334 34.4173C22.7513 34.4173 21.1487 33.3581 20.1044 32.6593L19.0601 34.5155C20.642 35.5419 23.289 37.147 25.2225 36.4701V36.4701ZM36.689 19.4364C36.9165 19.1962 36.9165 18.8031 36.689 18.5738L35.3449 17.1543C35.2366 17.0441 35.092 16.9825 34.9416 16.9825C34.7912 16.9825 34.6467 17.0441 34.5384 17.1543L33.4838 18.268L35.6344 20.5392L36.689 19.4364ZM26.5149 25.6275V27.8986H28.6655L35.0243 21.1834L32.8737 18.9123L26.5149 25.6275Z" fill="white"/>
</svg>
