<svg width="235" height="34" viewBox="0 0 235 34" fill="none" xmlns="http://www.w3.org/2000/svg">
<path d="M9.90474 2.494V0.946999H0.180742V2.494H4.20974V13H5.87574V2.494H9.90474ZM10.8579 8.07C10.9259 7.016 11.7419 5.979 13.0849 5.979C14.5299 5.979 15.2949 6.897 15.3289 8.07H10.8579ZM15.5669 10.195C15.2609 11.113 14.5979 11.844 13.2719 11.844C11.8949 11.844 10.8409 10.824 10.8069 9.362H16.9609C16.9779 9.26 16.9949 9.056 16.9949 8.852C16.9949 6.302 15.5839 4.568 13.0679 4.568C11.0109 4.568 9.15794 6.319 9.15794 8.886C9.15794 11.657 11.0789 13.255 13.2719 13.255C15.1759 13.255 16.4849 12.116 16.9439 10.671L15.5669 10.195ZM22.4688 6.047C23.8628 6.047 24.4578 6.982 24.6618 7.781L26.1068 7.169C25.7668 5.928 24.6448 4.568 22.4688 4.568C20.1398 4.568 18.3548 6.353 18.3548 8.903C18.3548 11.385 20.1058 13.255 22.4858 13.255C24.6108 13.255 25.7838 11.878 26.1748 10.705L24.7638 10.093C24.5768 10.739 24.0158 11.776 22.4858 11.776C21.1598 11.776 19.9868 10.773 19.9868 8.903C19.9868 6.999 21.1768 6.047 22.4688 6.047ZM29.6475 8.189C29.6815 6.982 30.3275 6.03 31.5515 6.03C32.9795 6.03 33.4555 6.948 33.4555 8.087V13H35.0535V7.815C35.0535 5.996 34.0845 4.585 32.1295 4.585C31.1945 4.585 30.2425 4.908 29.6475 5.775V0.691999H28.0495V13H29.6475V8.189ZM43.7154 13V0.946999H42.0154V13H43.7154ZM48.208 8.274C48.208 7.033 48.854 6.03 50.112 6.03C51.54 6.03 52.016 6.948 52.016 8.087V13H53.614V7.815C53.614 5.996 52.645 4.585 50.69 4.585C49.738 4.585 48.769 4.976 48.174 5.996V4.823H46.61V13H48.208V8.274ZM57.7539 8.274C57.7539 7.033 58.3999 6.03 59.6579 6.03C61.0859 6.03 61.5619 6.948 61.5619 8.087V13H63.1599V7.815C63.1599 5.996 62.1909 4.585 60.2359 4.585C59.2839 4.585 58.3149 4.976 57.7199 5.996V4.823H56.1559V13H57.7539V8.274ZM69.2038 11.827C67.8438 11.827 66.6538 10.807 66.6538 8.903C66.6538 7.016 67.8438 5.996 69.2038 5.996C70.5638 5.996 71.7538 7.016 71.7538 8.903C71.7538 10.807 70.5638 11.827 69.2038 11.827ZM69.2038 4.568C66.7558 4.568 65.0218 6.421 65.0218 8.903C65.0218 11.402 66.7558 13.255 69.2038 13.255C71.6518 13.255 73.3858 11.402 73.3858 8.903C73.3858 6.421 71.6518 4.568 69.2038 4.568ZM82.1853 4.823H80.4683L78.1223 11.13L75.7933 4.823H73.9913L77.3063 13H78.9213L82.1853 4.823ZM83.1215 10.807C83.1215 12.099 84.1925 13.255 85.8585 13.255C87.3205 13.255 88.1365 12.473 88.4935 11.895C88.4935 12.49 88.5445 12.796 88.5785 13H90.1425C90.1085 12.796 90.0405 12.371 90.0405 11.657V7.56C90.0405 5.962 89.0885 4.568 86.6405 4.568C84.8725 4.568 83.4615 5.656 83.2915 7.22L84.8215 7.577C84.9235 6.625 85.5525 5.928 86.6745 5.928C87.9155 5.928 88.4425 6.591 88.4425 7.39C88.4425 7.679 88.3065 7.934 87.8135 8.002L85.6035 8.325C84.1925 8.529 83.1215 9.345 83.1215 10.807ZM86.0795 11.912C85.2635 11.912 84.7535 11.334 84.7535 10.722C84.7535 9.991 85.2635 9.6 85.9435 9.498L88.4425 9.124V9.498C88.4425 11.283 87.3885 11.912 86.0795 11.912ZM94.6719 2.239H93.2099V3.565C93.2099 4.279 92.8359 4.823 91.9519 4.823H91.5099V6.268H93.0739V10.756C93.0739 12.235 93.9579 13.085 95.3519 13.085C95.8959 13.085 96.3039 12.983 96.4399 12.932V11.572C96.3039 11.606 96.0149 11.64 95.8109 11.64C94.9779 11.64 94.6719 11.266 94.6719 10.518V6.268H96.4399V4.823H94.6719V2.239ZM100.154 13V4.823H98.5729V13H100.154ZM98.2159 1.729C98.2159 2.358 98.7259 2.868 99.3549 2.868C100.001 2.868 100.511 2.358 100.511 1.729C100.511 1.083 100.001 0.573 99.3549 0.573C98.7259 0.573 98.2159 1.083 98.2159 1.729ZM106.375 11.827C105.015 11.827 103.825 10.807 103.825 8.903C103.825 7.016 105.015 5.996 106.375 5.996C107.735 5.996 108.925 7.016 108.925 8.903C108.925 10.807 107.735 11.827 106.375 11.827ZM106.375 4.568C103.927 4.568 102.193 6.421 102.193 8.903C102.193 11.402 103.927 13.255 106.375 13.255C108.823 13.255 110.557 11.402 110.557 8.903C110.557 6.421 108.823 4.568 106.375 4.568ZM114.199 8.274C114.199 7.033 114.845 6.03 116.103 6.03C117.531 6.03 118.007 6.948 118.007 8.087V13H119.605V7.815C119.605 5.996 118.636 4.585 116.681 4.585C115.729 4.585 114.76 4.976 114.165 5.996V4.823H112.601V13H114.199V8.274ZM134.914 13H136.716L131.922 0.946999H130.001L125.207 13H126.992L128.267 9.634H133.605L134.914 13ZM130.919 2.681L133.01 8.087H128.862L130.919 2.681ZM142.343 4.823L140.218 10.977L138.382 4.823H136.631L139.317 13H141L143.125 6.778L145.301 13H146.95L149.602 4.823H147.919L146.117 10.977L143.992 4.823H142.343ZM150.623 10.807C150.623 12.099 151.694 13.255 153.36 13.255C154.822 13.255 155.638 12.473 155.995 11.895C155.995 12.49 156.046 12.796 156.08 13H157.644C157.61 12.796 157.542 12.371 157.542 11.657V7.56C157.542 5.962 156.59 4.568 154.142 4.568C152.374 4.568 150.963 5.656 150.793 7.22L152.323 7.577C152.425 6.625 153.054 5.928 154.176 5.928C155.417 5.928 155.944 6.591 155.944 7.39C155.944 7.679 155.808 7.934 155.315 8.002L153.105 8.325C151.694 8.529 150.623 9.345 150.623 10.807ZM153.581 11.912C152.765 11.912 152.255 11.334 152.255 10.722C152.255 9.991 152.765 9.6 153.445 9.498L155.944 9.124V9.498C155.944 11.283 154.89 11.912 153.581 11.912ZM164.571 4.738C164.486 4.721 164.265 4.687 164.044 4.687C163.211 4.687 162.191 4.993 161.596 6.251V4.823H160.032V13H161.63V8.903C161.63 7.101 162.531 6.387 163.874 6.387C164.095 6.387 164.333 6.404 164.571 6.438V4.738ZM167.143 8.886C167.143 7.203 168.095 6.013 169.557 6.013C171.019 6.013 171.903 7.169 171.903 8.852C171.903 10.535 171.002 11.81 169.54 11.81C168.01 11.81 167.143 10.569 167.143 8.886ZM171.92 11.895C171.92 12.388 171.971 12.813 172.005 13H173.552C173.535 12.864 173.467 12.269 173.467 11.487V0.691999H171.886V5.979C171.614 5.316 170.832 4.602 169.387 4.602C167.075 4.602 165.511 6.574 165.511 8.886C165.511 11.317 166.99 13.221 169.387 13.221C170.662 13.221 171.529 12.541 171.92 11.759V11.895ZM191.57 10.484L188.476 0.946999H186.725L183.699 10.382L181.047 0.946999H179.33L182.815 13H184.481L187.592 3.225L190.737 13H192.454L195.888 0.946999H194.171L191.57 10.484ZM199.083 13V4.823H197.502V13H199.083ZM197.145 1.729C197.145 2.358 197.655 2.868 198.284 2.868C198.93 2.868 199.44 2.358 199.44 1.729C199.44 1.083 198.93 0.573 198.284 0.573C197.655 0.573 197.145 1.083 197.145 1.729ZM203.399 8.274C203.399 7.033 204.045 6.03 205.303 6.03C206.731 6.03 207.207 6.948 207.207 8.087V13H208.805V7.815C208.805 5.996 207.836 4.585 205.881 4.585C204.929 4.585 203.96 4.976 203.365 5.996V4.823H201.801V13H203.399V8.274ZM212.945 8.274C212.945 7.033 213.591 6.03 214.849 6.03C216.277 6.03 216.753 6.948 216.753 8.087V13H218.351V7.815C218.351 5.996 217.382 4.585 215.427 4.585C214.475 4.585 213.506 4.976 212.911 5.996V4.823H211.347V13H212.945V8.274ZM221.93 8.07C221.998 7.016 222.814 5.979 224.157 5.979C225.602 5.979 226.367 6.897 226.401 8.07H221.93ZM226.639 10.195C226.333 11.113 225.67 11.844 224.344 11.844C222.967 11.844 221.913 10.824 221.879 9.362H228.033C228.05 9.26 228.067 9.056 228.067 8.852C228.067 6.302 226.656 4.568 224.14 4.568C222.083 4.568 220.23 6.319 220.23 8.886C220.23 11.657 222.151 13.255 224.344 13.255C226.248 13.255 227.557 12.116 228.016 10.671L226.639 10.195ZM234.646 4.738C234.561 4.721 234.34 4.687 234.119 4.687C233.286 4.687 232.266 4.993 231.671 6.251V4.823H230.107V13H231.705V8.903C231.705 7.101 232.606 6.387 233.949 6.387C234.17 6.387 234.408 6.404 234.646 6.438V4.738ZM102.598 25.945C102.581 25.775 102.564 25.605 102.564 25.452C102.564 24.194 103.244 23.191 104.689 23.191C106.083 23.191 106.763 24.126 106.763 25.129C106.763 25.979 106.287 26.761 105.25 27.424L103.414 28.614C101.544 29.821 100.83 31.198 100.796 33H108.514V31.453H102.853C103.006 30.773 103.567 30.314 104.196 29.906L106.372 28.512C107.63 27.713 108.446 26.557 108.446 25.112C108.446 23.276 107.086 21.729 104.723 21.729C102.309 21.729 100.915 23.412 100.915 25.299C100.915 25.435 100.915 25.588 100.932 25.741L102.598 25.945ZM111.698 27.492C111.698 25.809 112.004 24.619 112.667 23.922C113.092 23.48 113.636 23.208 114.418 23.208C115.2 23.208 115.744 23.48 116.169 23.922C116.832 24.619 117.138 25.809 117.138 27.492C117.138 29.175 116.832 30.365 116.169 31.062C115.744 31.504 115.2 31.776 114.418 31.776C113.636 31.776 113.092 31.504 112.667 31.062C112.004 30.365 111.698 29.175 111.698 27.492ZM110.049 27.492C110.049 29.005 110.304 30.399 111.035 31.487C111.749 32.558 112.854 33.255 114.418 33.255C115.982 33.255 117.087 32.558 117.801 31.487C118.532 30.399 118.787 29.005 118.787 27.492C118.787 25.979 118.532 24.585 117.801 23.497C117.087 22.426 115.982 21.729 114.418 21.729C112.854 21.729 111.749 22.426 111.035 23.497C110.304 24.585 110.049 25.979 110.049 27.492ZM122.039 25.945C122.022 25.775 122.005 25.605 122.005 25.452C122.005 24.194 122.685 23.191 124.13 23.191C125.524 23.191 126.204 24.126 126.204 25.129C126.204 25.979 125.728 26.761 124.691 27.424L122.855 28.614C120.985 29.821 120.271 31.198 120.237 33H127.955V31.453H122.294C122.447 30.773 123.008 30.314 123.637 29.906L125.813 28.512C127.071 27.713 127.887 26.557 127.887 25.112C127.887 23.276 126.527 21.729 124.164 21.729C121.75 21.729 120.356 23.412 120.356 25.299C120.356 25.435 120.356 25.588 120.373 25.741L122.039 25.945ZM133.532 33V21.984H132.07C131.815 23.174 130.761 24.024 129.231 24.058V25.231H131.9V33H133.532Z" fill="#F90066"/>
</svg>
