<svg width="244" height="34" viewBox="0 0 244 34" fill="none" xmlns="http://www.w3.org/2000/svg">
<path d="M2.13448 6.574V2.443H4.54848C5.99348 2.443 6.87748 3.259 6.87748 4.534C6.87748 5.775 5.99348 6.574 4.54848 6.574H2.13448ZM4.85448 8.07C7.08148 8.07 8.57748 6.557 8.57748 4.517C8.57748 2.494 7.08148 0.946999 4.85448 0.946999H0.468477V13H2.13448V8.07H4.85448ZM14.732 4.738C14.647 4.721 14.426 4.687 14.205 4.687C13.372 4.687 12.352 4.993 11.757 6.251V4.823H10.193V13H11.791V8.903C11.791 7.101 12.692 6.387 14.035 6.387C14.256 6.387 14.494 6.404 14.732 6.438V4.738ZM17.3892 8.07C17.4572 7.016 18.2732 5.979 19.6162 5.979C21.0612 5.979 21.8262 6.897 21.8602 8.07H17.3892ZM22.0982 10.195C21.7922 11.113 21.1292 11.844 19.8032 11.844C18.4262 11.844 17.3722 10.824 17.3382 9.362H23.4922C23.5092 9.26 23.5262 9.056 23.5262 8.852C23.5262 6.302 22.1152 4.568 19.5992 4.568C17.5422 4.568 15.6892 6.319 15.6892 8.886C15.6892 11.657 17.6102 13.255 19.8032 13.255C21.7072 13.255 23.0162 12.116 23.4752 10.671L22.0982 10.195ZM27.1471 16.23V11.895C27.5891 12.626 28.5411 13.221 29.7991 13.221C32.1961 13.221 33.6071 11.334 33.6071 8.903C33.6071 6.523 32.2981 4.636 29.8501 4.636C28.5241 4.636 27.5551 5.282 27.1131 6.098V4.823H25.5661V16.23H27.1471ZM31.9751 8.903C31.9751 10.586 31.0401 11.793 29.5611 11.793C28.0991 11.793 27.1301 10.586 27.1301 8.903C27.1301 7.271 28.0991 6.047 29.5611 6.047C31.0571 6.047 31.9751 7.271 31.9751 8.903ZM35.1332 10.807C35.1332 12.099 36.2042 13.255 37.8702 13.255C39.3322 13.255 40.1482 12.473 40.5052 11.895C40.5052 12.49 40.5562 12.796 40.5902 13H42.1542C42.1202 12.796 42.0522 12.371 42.0522 11.657V7.56C42.0522 5.962 41.1002 4.568 38.6522 4.568C36.8842 4.568 35.4732 5.656 35.3032 7.22L36.8332 7.577C36.9352 6.625 37.5642 5.928 38.6862 5.928C39.9272 5.928 40.4542 6.591 40.4542 7.39C40.4542 7.679 40.3182 7.934 39.8252 8.002L37.6152 8.325C36.2042 8.529 35.1332 9.345 35.1332 10.807ZM38.0912 11.912C37.2752 11.912 36.7652 11.334 36.7652 10.722C36.7652 9.991 37.2752 9.6 37.9552 9.498L40.4542 9.124V9.498C40.4542 11.283 39.4002 11.912 38.0912 11.912ZM49.0806 4.738C48.9956 4.721 48.7746 4.687 48.5536 4.687C47.7206 4.687 46.7006 4.993 46.1056 6.251V4.823H44.5416V13H46.1396V8.903C46.1396 7.101 47.0406 6.387 48.3836 6.387C48.6046 6.387 48.8426 6.404 49.0806 6.438V4.738ZM51.7378 8.07C51.8058 7.016 52.6218 5.979 53.9648 5.979C55.4098 5.979 56.1748 6.897 56.2088 8.07H51.7378ZM56.4468 10.195C56.1408 11.113 55.4778 11.844 54.1518 11.844C52.7748 11.844 51.7208 10.824 51.6868 9.362H57.8408C57.8578 9.26 57.8748 9.056 57.8748 8.852C57.8748 6.302 56.4638 4.568 53.9478 4.568C51.8908 4.568 50.0378 6.319 50.0378 8.886C50.0378 11.657 51.9588 13.255 54.1518 13.255C56.0558 13.255 57.3648 12.116 57.8238 10.671L56.4468 10.195ZM59.1497 10.518H64.5557V13H66.1707V10.518H68.0577V8.971H66.1707V1.984H63.8757L59.1497 8.597V10.518ZM64.5557 8.971H60.6797L64.5557 3.582V8.971ZM73.8924 10.858L70.2544 0.946999H68.4864L73.0254 13H74.6744L79.3154 0.946999H77.5644L73.8924 10.858ZM85.8066 13.255C88.5776 13.255 90.4816 11.64 91.1276 9.379L89.6486 8.835C89.1556 10.484 87.8636 11.725 85.8066 11.725C83.6136 11.725 81.5226 10.11 81.5226 6.965C81.5226 3.82 83.6136 2.222 85.8066 2.222C87.7786 2.222 89.1046 3.242 89.5636 5.061L91.1106 4.517C90.4986 2.188 88.5606 0.691999 85.8066 0.691999C82.8146 0.691999 79.8226 2.936 79.8226 6.965C79.8226 10.994 82.6956 13.255 85.8066 13.255ZM105.935 13H107.737L102.943 0.946999H101.022L96.2276 13H98.0126L99.2876 9.634H104.626L105.935 13ZM101.94 2.681L104.031 8.087H99.8826L101.94 2.681ZM112.539 6.047C113.933 6.047 114.528 6.982 114.732 7.781L116.177 7.169C115.837 5.928 114.715 4.568 112.539 4.568C110.21 4.568 108.425 6.353 108.425 8.903C108.425 11.385 110.176 13.255 112.556 13.255C114.681 13.255 115.854 11.878 116.245 10.705L114.834 10.093C114.647 10.739 114.086 11.776 112.556 11.776C111.23 11.776 110.057 10.773 110.057 8.903C110.057 6.999 111.247 6.047 112.539 6.047ZM121.471 6.047C122.865 6.047 123.46 6.982 123.664 7.781L125.109 7.169C124.769 5.928 123.647 4.568 121.471 4.568C119.142 4.568 117.357 6.353 117.357 8.903C117.357 11.385 119.108 13.255 121.488 13.255C123.613 13.255 124.786 11.878 125.177 10.705L123.766 10.093C123.579 10.739 123.018 11.776 121.488 11.776C120.162 11.776 118.989 10.773 118.989 8.903C118.989 6.999 120.179 6.047 121.471 6.047ZM128.005 8.07C128.073 7.016 128.889 5.979 130.232 5.979C131.677 5.979 132.442 6.897 132.476 8.07H128.005ZM132.714 10.195C132.408 11.113 131.745 11.844 130.419 11.844C129.042 11.844 127.988 10.824 127.954 9.362H134.108C134.125 9.26 134.142 9.056 134.142 8.852C134.142 6.302 132.731 4.568 130.215 4.568C128.158 4.568 126.305 6.319 126.305 8.886C126.305 11.657 128.226 13.255 130.419 13.255C132.323 13.255 133.632 12.116 134.091 10.671L132.714 10.195ZM137.78 13V0.691999H136.182V13H137.78ZM141.536 8.07C141.604 7.016 142.42 5.979 143.763 5.979C145.208 5.979 145.973 6.897 146.007 8.07H141.536ZM146.245 10.195C145.939 11.113 145.276 11.844 143.95 11.844C142.573 11.844 141.519 10.824 141.485 9.362H147.639C147.656 9.26 147.673 9.056 147.673 8.852C147.673 6.302 146.262 4.568 143.746 4.568C141.689 4.568 139.836 6.319 139.836 8.886C139.836 11.657 141.757 13.255 143.95 13.255C145.854 13.255 147.163 12.116 147.622 10.671L146.245 10.195ZM154.252 4.738C154.167 4.721 153.946 4.687 153.725 4.687C152.892 4.687 151.872 4.993 151.277 6.251V4.823H149.713V13H151.311V8.903C151.311 7.101 152.212 6.387 153.555 6.387C153.776 6.387 154.014 6.404 154.252 6.438V4.738ZM155.445 10.807C155.445 12.099 156.516 13.255 158.182 13.255C159.644 13.255 160.46 12.473 160.817 11.895C160.817 12.49 160.868 12.796 160.902 13H162.466C162.432 12.796 162.364 12.371 162.364 11.657V7.56C162.364 5.962 161.412 4.568 158.964 4.568C157.196 4.568 155.785 5.656 155.615 7.22L157.145 7.577C157.247 6.625 157.876 5.928 158.998 5.928C160.239 5.928 160.766 6.591 160.766 7.39C160.766 7.679 160.63 7.934 160.137 8.002L157.927 8.325C156.516 8.529 155.445 9.345 155.445 10.807ZM158.403 11.912C157.587 11.912 157.077 11.334 157.077 10.722C157.077 9.991 157.587 9.6 158.267 9.498L160.766 9.124V9.498C160.766 11.283 159.712 11.912 158.403 11.912ZM166.995 2.239H165.533V3.565C165.533 4.279 165.159 4.823 164.275 4.823H163.833V6.268H165.397V10.756C165.397 12.235 166.281 13.085 167.675 13.085C168.219 13.085 168.627 12.983 168.763 12.932V11.572C168.627 11.606 168.338 11.64 168.134 11.64C167.301 11.64 166.995 11.266 166.995 10.518V6.268H168.763V4.823H166.995V2.239ZM174.315 11.827C172.955 11.827 171.765 10.807 171.765 8.903C171.765 7.016 172.955 5.996 174.315 5.996C175.675 5.996 176.865 7.016 176.865 8.903C176.865 10.807 175.675 11.827 174.315 11.827ZM174.315 4.568C171.867 4.568 170.133 6.421 170.133 8.903C170.133 11.402 171.867 13.255 174.315 13.255C176.763 13.255 178.497 11.402 178.497 8.903C178.497 6.421 176.763 4.568 174.315 4.568ZM185.081 4.738C184.996 4.721 184.775 4.687 184.554 4.687C183.721 4.687 182.701 4.993 182.106 6.251V4.823H180.542V13H182.14V8.903C182.14 7.101 183.041 6.387 184.384 6.387C184.605 6.387 184.843 6.404 185.081 6.438V4.738ZM196.423 13.255C199.194 13.255 201.098 11.64 201.744 9.379L200.265 8.835C199.772 10.484 198.48 11.725 196.423 11.725C194.23 11.725 192.139 10.11 192.139 6.965C192.139 3.82 194.23 2.222 196.423 2.222C198.395 2.222 199.721 3.242 200.18 5.061L201.727 4.517C201.115 2.188 199.177 0.691999 196.423 0.691999C193.431 0.691999 190.439 2.936 190.439 6.965C190.439 10.994 193.312 13.255 196.423 13.255ZM206.954 11.827C205.594 11.827 204.404 10.807 204.404 8.903C204.404 7.016 205.594 5.996 206.954 5.996C208.314 5.996 209.504 7.016 209.504 8.903C209.504 10.807 208.314 11.827 206.954 11.827ZM206.954 4.568C204.506 4.568 202.772 6.421 202.772 8.903C202.772 11.402 204.506 13.255 206.954 13.255C209.402 13.255 211.136 11.402 211.136 8.903C211.136 6.421 209.402 4.568 206.954 4.568ZM214.778 8.189C214.812 6.982 215.458 6.03 216.682 6.03C218.11 6.03 218.586 6.948 218.586 8.087V13H220.184V7.815C220.184 5.996 219.215 4.585 217.26 4.585C216.325 4.585 215.373 4.908 214.778 5.775V0.691999H213.18V13H214.778V8.189ZM226.228 11.827C224.868 11.827 223.678 10.807 223.678 8.903C223.678 7.016 224.868 5.996 226.228 5.996C227.588 5.996 228.778 7.016 228.778 8.903C228.778 10.807 227.588 11.827 226.228 11.827ZM226.228 4.568C223.78 4.568 222.046 6.421 222.046 8.903C222.046 11.402 223.78 13.255 226.228 13.255C228.676 13.255 230.41 11.402 230.41 8.903C230.41 6.421 228.676 4.568 226.228 4.568ZM236.994 4.738C236.909 4.721 236.688 4.687 236.467 4.687C235.634 4.687 234.614 4.993 234.019 6.251V4.823H232.455V13H234.053V8.903C234.053 7.101 234.954 6.387 236.297 6.387C236.518 6.387 236.756 6.404 236.994 6.438V4.738ZM241.271 2.239H239.809V3.565C239.809 4.279 239.435 4.823 238.551 4.823H238.109V6.268H239.673V10.756C239.673 12.235 240.557 13.085 241.951 13.085C242.495 13.085 242.903 12.983 243.039 12.932V11.572C242.903 11.606 242.614 11.64 242.41 11.64C241.577 11.64 241.271 11.266 241.271 10.518V6.268H243.039V4.823H241.271V2.239ZM108.598 25.945C108.581 25.775 108.564 25.605 108.564 25.452C108.564 24.194 109.244 23.191 110.689 23.191C112.083 23.191 112.763 24.126 112.763 25.129C112.763 25.979 112.287 26.761 111.25 27.424L109.414 28.614C107.544 29.821 106.83 31.198 106.796 33H114.514V31.453H108.853C109.006 30.773 109.567 30.314 110.196 29.906L112.372 28.512C113.63 27.713 114.446 26.557 114.446 25.112C114.446 23.276 113.086 21.729 110.723 21.729C108.309 21.729 106.915 23.412 106.915 25.299C106.915 25.435 106.915 25.588 106.932 25.741L108.598 25.945ZM117.698 27.492C117.698 25.809 118.004 24.619 118.667 23.922C119.092 23.48 119.636 23.208 120.418 23.208C121.2 23.208 121.744 23.48 122.169 23.922C122.832 24.619 123.138 25.809 123.138 27.492C123.138 29.175 122.832 30.365 122.169 31.062C121.744 31.504 121.2 31.776 120.418 31.776C119.636 31.776 119.092 31.504 118.667 31.062C118.004 30.365 117.698 29.175 117.698 27.492ZM116.049 27.492C116.049 29.005 116.304 30.399 117.035 31.487C117.749 32.558 118.854 33.255 120.418 33.255C121.982 33.255 123.087 32.558 123.801 31.487C124.532 30.399 124.787 29.005 124.787 27.492C124.787 25.979 124.532 24.585 123.801 23.497C123.087 22.426 121.982 21.729 120.418 21.729C118.854 21.729 117.749 22.426 117.035 23.497C116.304 24.585 116.049 25.979 116.049 27.492ZM128.039 25.945C128.022 25.775 128.005 25.605 128.005 25.452C128.005 24.194 128.685 23.191 130.13 23.191C131.524 23.191 132.204 24.126 132.204 25.129C132.204 25.979 131.728 26.761 130.691 27.424L128.855 28.614C126.985 29.821 126.271 31.198 126.237 33H133.955V31.453H128.294C128.447 30.773 129.008 30.314 129.637 29.906L131.813 28.512C133.071 27.713 133.887 26.557 133.887 25.112C133.887 23.276 132.527 21.729 130.164 21.729C127.75 21.729 126.356 23.412 126.356 25.299C126.356 25.435 126.356 25.588 126.373 25.741L128.039 25.945ZM139.532 33V21.984H138.07C137.815 23.174 136.761 24.024 135.231 24.058V25.231H137.9V33H139.532Z" fill="#F90066"/>
</svg>
