<svg width="227" height="14" viewBox="0 0 227 14" fill="none" xmlns="http://www.w3.org/2000/svg">
<path d="M1.76973 13V7.934H6.90373V6.37H1.76973V2.494H7.43073V0.946999H0.103731V13H1.76973ZM12.2014 11.827C10.8414 11.827 9.65136 10.807 9.65136 8.903C9.65136 7.016 10.8414 5.996 12.2014 5.996C13.5614 5.996 14.7514 7.016 14.7514 8.903C14.7514 10.807 13.5614 11.827 12.2014 11.827ZM12.2014 4.568C9.75336 4.568 8.01936 6.421 8.01936 8.903C8.01936 11.402 9.75336 13.255 12.2014 13.255C14.6494 13.255 16.3834 11.402 16.3834 8.903C16.3834 6.421 14.6494 4.568 12.2014 4.568ZM22.9669 4.738C22.8819 4.721 22.6609 4.687 22.4399 4.687C21.6069 4.687 20.5869 4.993 19.9919 6.251V4.823H18.4279V13H20.0259V8.903C20.0259 7.101 20.9269 6.387 22.2699 6.387C22.4909 6.387 22.7289 6.404 22.9669 6.438V4.738ZM26.2511 13V11.81C26.7611 12.694 27.6961 13.221 28.9031 13.221C31.3341 13.221 32.7111 11.3 32.7111 8.869C32.7111 6.489 31.4361 4.585 28.9541 4.585C27.5941 4.585 26.6421 5.248 26.2511 5.979V0.691999H24.6701V13H26.2511ZM31.0791 8.869C31.0791 10.637 30.1271 11.793 28.6651 11.793C27.2541 11.793 26.2341 10.637 26.2341 8.869C26.2341 7.101 27.2541 5.996 28.6651 5.996C30.1441 5.996 31.0791 7.101 31.0791 8.869ZM35.7842 8.07C35.8522 7.016 36.6682 5.979 38.0112 5.979C39.4562 5.979 40.2212 6.897 40.2552 8.07H35.7842ZM40.4932 10.195C40.1872 11.113 39.5242 11.844 38.1982 11.844C36.8212 11.844 35.7672 10.824 35.7332 9.362H41.8872C41.9042 9.26 41.9212 9.056 41.9212 8.852C41.9212 6.302 40.5102 4.568 37.9942 4.568C35.9372 4.568 34.0842 6.319 34.0842 8.886C34.0842 11.657 36.0052 13.255 38.1982 13.255C40.1022 13.255 41.4112 12.116 41.8702 10.671L40.4932 10.195ZM43.1961 10.875C43.3321 11.81 44.2841 13.255 46.5281 13.255C48.5511 13.255 49.5201 11.878 49.5201 10.722C49.5201 9.515 48.7381 8.614 47.2591 8.291L45.9331 8.002C45.3041 7.866 44.9981 7.509 44.9981 7.016C44.9981 6.455 45.5421 5.928 46.3581 5.928C47.6501 5.928 47.9901 6.863 48.0581 7.288L49.4691 6.761C49.2991 6.03 48.6021 4.568 46.3581 4.568C44.7601 4.568 43.4511 5.758 43.4511 7.152C43.4511 8.308 44.2161 9.175 45.4911 9.447L46.8851 9.753C47.5651 9.906 47.9391 10.297 47.9391 10.807C47.9391 11.385 47.4461 11.895 46.5451 11.895C45.3891 11.895 44.7431 11.215 44.6411 10.365L43.1961 10.875ZM60.2326 13.255C62.6806 13.255 64.5676 11.725 64.5676 8.886V0.946999H62.9016V8.835C62.9016 10.671 61.9326 11.708 60.2326 11.708C58.5496 11.708 57.5466 10.671 57.5466 8.835V0.946999H55.8976V8.886C55.8976 11.725 57.7846 13.255 60.2326 13.255ZM68.8013 8.274C68.8013 7.033 69.4473 6.03 70.7053 6.03C72.1333 6.03 72.6093 6.948 72.6093 8.087V13H74.2073V7.815C74.2073 5.996 73.2383 4.585 71.2833 4.585C70.3313 4.585 69.3623 4.976 68.7673 5.996V4.823H67.2033V13H68.8013V8.274ZM77.7012 8.886C77.7012 7.203 78.6532 6.013 80.1152 6.013C81.5772 6.013 82.4612 7.169 82.4612 8.852C82.4612 10.535 81.5602 11.81 80.0982 11.81C78.5682 11.81 77.7012 10.569 77.7012 8.886ZM82.4782 11.895C82.4782 12.388 82.5292 12.813 82.5632 13H84.1102C84.0932 12.864 84.0252 12.269 84.0252 11.487V0.691999H82.4442V5.979C82.1722 5.316 81.3902 4.602 79.9452 4.602C77.6332 4.602 76.0692 6.574 76.0692 8.886C76.0692 11.317 77.5482 13.221 79.9452 13.221C81.2202 13.221 82.0872 12.541 82.4782 11.759V11.895ZM87.7803 8.07C87.8483 7.016 88.6643 5.979 90.0073 5.979C91.4523 5.979 92.2173 6.897 92.2513 8.07H87.7803ZM92.4893 10.195C92.1833 11.113 91.5203 11.844 90.1943 11.844C88.8173 11.844 87.7633 10.824 87.7293 9.362H93.8833C93.9003 9.26 93.9173 9.056 93.9173 8.852C93.9173 6.302 92.5063 4.568 89.9903 4.568C87.9333 4.568 86.0803 6.319 86.0803 8.886C86.0803 11.657 88.0013 13.255 90.1943 13.255C92.0983 13.255 93.4073 12.116 93.8663 10.671L92.4893 10.195ZM100.496 4.738C100.411 4.721 100.19 4.687 99.9692 4.687C99.1362 4.687 98.1162 4.993 97.5212 6.251V4.823H95.9572V13H97.5552V8.903C97.5552 7.101 98.4562 6.387 99.7992 6.387C100.02 6.387 100.258 6.404 100.496 6.438V4.738ZM108.914 7.883C109.203 7.781 109.543 7.713 109.883 7.713C110.971 7.713 112.127 8.325 112.127 9.77C112.127 10.875 111.311 11.81 109.798 11.81C108.472 11.81 107.418 10.892 107.35 9.43L105.718 9.804C105.82 11.606 107.265 13.272 109.815 13.272C112.382 13.272 113.81 11.589 113.81 9.736C113.81 7.475 112.025 6.387 110.41 6.387L113.555 3.48V1.984H106.075V3.514H111.345L108.098 6.506L108.914 7.883ZM116.985 7.492C116.985 5.809 117.291 4.619 117.954 3.922C118.379 3.48 118.923 3.208 119.705 3.208C120.487 3.208 121.031 3.48 121.456 3.922C122.119 4.619 122.425 5.809 122.425 7.492C122.425 9.175 122.119 10.365 121.456 11.062C121.031 11.504 120.487 11.776 119.705 11.776C118.923 11.776 118.379 11.504 117.954 11.062C117.291 10.365 116.985 9.175 116.985 7.492ZM115.336 7.492C115.336 9.005 115.591 10.399 116.322 11.487C117.036 12.558 118.141 13.255 119.705 13.255C121.269 13.255 122.374 12.558 123.088 11.487C123.819 10.399 124.074 9.005 124.074 7.492C124.074 5.979 123.819 4.585 123.088 3.497C122.374 2.426 121.269 1.729 119.705 1.729C118.141 1.729 117.036 2.426 116.322 3.497C115.591 4.585 115.336 5.979 115.336 7.492ZM138.392 3.684C138.12 2.375 137.032 0.691999 134.312 0.691999C132.085 0.691999 130.334 2.392 130.334 4.279C130.334 6.081 131.558 7.203 133.275 7.577L134.992 7.951C136.199 8.206 136.794 8.954 136.794 9.821C136.794 10.875 135.978 11.742 134.312 11.742C132.493 11.742 131.541 10.501 131.422 9.158L129.824 9.668C130.045 11.385 131.422 13.255 134.329 13.255C136.896 13.255 138.494 11.555 138.494 9.685C138.494 8.002 137.372 6.744 135.366 6.302L133.564 5.911C132.544 5.69 132.017 5.027 132.017 4.16C132.017 3.038 132.986 2.154 134.346 2.154C136.029 2.154 136.76 3.344 136.896 4.211L138.392 3.684ZM145.573 12.014C145.573 12.354 145.607 12.813 145.641 13H147.171C147.137 12.711 147.086 12.133 147.086 11.487V4.823H145.488V9.753C145.488 10.994 144.842 11.844 143.55 11.844C142.207 11.844 141.697 10.858 141.697 9.736V4.823H140.099V9.974C140.099 11.827 141.255 13.255 143.159 13.255C144.111 13.255 145.131 12.864 145.573 12.014ZM151.394 13V8.07C151.394 6.846 152.159 5.996 153.298 5.996C154.522 5.996 155.032 6.812 155.032 7.866V13H156.63V8.053C156.63 6.88 157.395 5.996 158.517 5.996C159.724 5.996 160.251 6.795 160.251 7.866V13H161.832V7.696C161.832 5.554 160.438 4.585 159.01 4.585C157.973 4.585 156.919 4.959 156.273 6.132C155.831 5.078 154.845 4.585 153.825 4.585C152.873 4.585 151.853 5.01 151.343 5.911V4.823H149.813V13H151.394ZM165.97 13V8.07C165.97 6.846 166.735 5.996 167.874 5.996C169.098 5.996 169.608 6.812 169.608 7.866V13H171.206V8.053C171.206 6.88 171.971 5.996 173.093 5.996C174.3 5.996 174.827 6.795 174.827 7.866V13H176.408V7.696C176.408 5.554 175.014 4.585 173.586 4.585C172.549 4.585 171.495 4.959 170.849 6.132C170.407 5.078 169.421 4.585 168.401 4.585C167.449 4.585 166.429 5.01 165.919 5.911V4.823H164.389V13H165.97ZM180.546 13V4.823H178.965V13H180.546ZM178.608 1.729C178.608 2.358 179.118 2.868 179.747 2.868C180.393 2.868 180.903 2.358 180.903 1.729C180.903 1.083 180.393 0.573 179.747 0.573C179.118 0.573 178.608 1.083 178.608 1.729ZM185.407 2.239H183.945V3.565C183.945 4.279 183.571 4.823 182.687 4.823H182.245V6.268H183.809V10.756C183.809 12.235 184.693 13.085 186.087 13.085C186.631 13.085 187.039 12.983 187.175 12.932V11.572C187.039 11.606 186.75 11.64 186.546 11.64C185.713 11.64 185.407 11.266 185.407 10.518V6.268H187.175V4.823H185.407V2.239ZM194.595 5.945C194.578 5.775 194.561 5.605 194.561 5.452C194.561 4.194 195.241 3.191 196.686 3.191C198.08 3.191 198.76 4.126 198.76 5.129C198.76 5.979 198.284 6.761 197.247 7.424L195.411 8.614C193.541 9.821 192.827 11.198 192.793 13H200.511V11.453H194.85C195.003 10.773 195.564 10.314 196.193 9.906L198.369 8.512C199.627 7.713 200.443 6.557 200.443 5.112C200.443 3.276 199.083 1.729 196.72 1.729C194.306 1.729 192.912 3.412 192.912 5.299C192.912 5.435 192.912 5.588 192.929 5.741L194.595 5.945ZM203.695 7.492C203.695 5.809 204.001 4.619 204.664 3.922C205.089 3.48 205.633 3.208 206.415 3.208C207.197 3.208 207.741 3.48 208.166 3.922C208.829 4.619 209.135 5.809 209.135 7.492C209.135 9.175 208.829 10.365 208.166 11.062C207.741 11.504 207.197 11.776 206.415 11.776C205.633 11.776 205.089 11.504 204.664 11.062C204.001 10.365 203.695 9.175 203.695 7.492ZM202.046 7.492C202.046 9.005 202.301 10.399 203.032 11.487C203.746 12.558 204.851 13.255 206.415 13.255C207.979 13.255 209.084 12.558 209.798 11.487C210.529 10.399 210.784 9.005 210.784 7.492C210.784 5.979 210.529 4.585 209.798 3.497C209.084 2.426 207.979 1.729 206.415 1.729C204.851 1.729 203.746 2.426 203.032 3.497C202.301 4.585 202.046 5.979 202.046 7.492ZM216.281 13V1.984H214.819C214.564 3.174 213.51 4.024 211.98 4.058V5.231H214.649V13H216.281ZM218.517 12.609C219.061 12.983 220.217 13.255 221.067 13.255C224.773 13.255 226.575 10.841 226.575 6.795C226.575 3.276 224.45 1.729 222.291 1.729C220.132 1.729 218.228 3.259 218.228 5.537C218.228 7.968 220.132 9.26 222.036 9.26C223.532 9.26 224.501 8.58 224.892 7.849C224.824 10.008 223.736 11.759 221.067 11.759C220.353 11.759 219.537 11.521 219.061 11.232L218.517 12.609ZM224.671 5.503C224.671 6.965 223.515 7.832 222.291 7.832C221.033 7.832 219.911 6.999 219.911 5.503C219.911 4.058 221.067 3.191 222.291 3.191C223.498 3.191 224.671 4.075 224.671 5.503Z" fill="#F90066"/>
</svg>
