<svg width="92" height="26" viewBox="0 0 92 26" fill="none" xmlns="http://www.w3.org/2000/svg">
<path d="M12.7152 25.7262C16.653 25.7262 19.2667 24.4946 21.5667 22.5104C21.95 22.1683 22.2637 21.6551 22.2637 21.0051C22.2637 19.9446 21.3228 19.0551 20.2425 19.0551C19.7197 19.0551 19.2667 19.2604 18.9531 19.5341C17.1758 21.0051 15.4334 21.8262 12.8546 21.8262C8.18487 21.8262 4.80455 18.0288 4.80455 13.342V13.2735C4.80455 8.58669 8.21972 4.82353 12.8546 4.82353C15.1894 4.82353 17.0015 5.64458 18.6743 6.97879C18.9531 7.18406 19.3712 7.38932 19.9636 7.38932C21.1485 7.38932 22.0894 6.49985 22.0894 5.33669C22.0894 4.58406 21.7061 4.00248 21.253 3.66037C19.1273 2.05248 16.653 0.95774 12.8894 0.95774C5.50153 0.95774 0.309113 6.53406 0.309113 13.342V13.4104C0.309113 20.2867 5.60607 25.7262 12.7152 25.7262ZM27.9106 4.65248C29.2697 4.65248 30.3152 3.83142 30.3152 2.59985V2.39458C30.3152 1.163 29.2697 0.376161 27.9106 0.376161C26.5515 0.376161 25.5061 1.163 25.5061 2.39458V2.59985C25.5061 3.83142 26.5515 4.65248 27.9106 4.65248ZM27.9106 25.4867C29.0955 25.4867 30.0364 24.5972 30.0364 23.4341V9.13406C30.0364 7.9709 29.0955 7.04721 27.9106 7.04721C26.7258 7.04721 25.8197 7.9709 25.8197 9.13406V23.4341C25.8197 24.5972 26.7606 25.4867 27.9106 25.4867ZM36.5894 25.4867C37.7743 25.4867 38.7151 24.563 38.7151 23.4341V18.0972C38.7151 13.8209 40.7712 11.563 43.7682 11.0498C44.7091 10.8788 45.4409 10.1604 45.4409 9.06564C45.4409 7.86827 44.6743 7.013 43.35 7.013C41.503 7.013 39.6909 8.72353 38.7151 10.9814V9.13406C38.7151 7.9709 37.7743 7.04721 36.5894 7.04721C35.4046 7.04721 34.4985 7.9709 34.4985 9.13406V23.4341C34.4985 24.5972 35.4394 25.4867 36.5894 25.4867ZM55.7227 25.7262C58.7894 25.7262 60.7758 24.6998 62.4136 23.1604C62.797 22.8525 63.0061 22.4077 63.0061 21.8604C63.0061 20.8683 62.2045 20.0472 61.1939 20.0472C60.7061 20.0472 60.2879 20.2867 60.0439 20.492C58.8939 21.4498 57.6045 22.0998 55.9318 22.0998C52.6909 22.0998 50.4258 19.5341 50.4258 16.3183V16.2498C50.4258 13.1025 52.6909 10.5025 55.7576 10.5025C57.4303 10.5025 58.6152 11.1525 59.6955 12.042C59.9742 12.2472 60.4273 12.4525 60.95 12.4525C62.0303 12.4525 62.9015 11.6314 62.9015 10.5709C62.9015 9.88669 62.5182 9.37353 62.2394 9.13406C60.6712 7.79984 58.6848 6.87616 55.7924 6.87616C50.2515 6.87616 46.2091 11.1867 46.2091 16.3183V16.3867C46.2091 21.5183 50.2515 25.7262 55.7227 25.7262ZM68.4091 25.4867C69.5939 25.4867 70.5349 24.5972 70.5349 23.4341V2.22353C70.5349 1.09458 69.5939 0.170898 68.4091 0.170898C67.2242 0.170898 66.3182 1.09458 66.3182 2.22353V23.4341C66.3182 24.5972 67.2591 25.4867 68.4091 25.4867ZM83.4303 25.7262C86.2879 25.7262 88.3788 24.8025 90.0515 23.3314C90.3651 23.0235 90.6091 22.5788 90.6091 22.0656C90.6091 21.1077 89.8773 20.3893 88.9364 20.3893C88.4485 20.3893 88.1697 20.5262 87.856 20.7656C86.6712 21.7235 85.2773 22.3393 83.5 22.3393C80.7818 22.3393 78.656 20.6972 78.203 17.7551H89.7379C90.8182 17.7551 91.7242 16.9341 91.7242 15.7709C91.7242 11.5972 88.8318 6.87616 82.9773 6.87616C77.7151 6.87616 73.9864 11.1183 73.9864 16.2841V16.3525C73.9864 21.9288 78.0985 25.7262 83.4303 25.7262ZM87.6121 15.0183H78.1682C78.5515 12.213 80.3636 10.263 82.9424 10.263C85.7303 10.263 87.3333 12.3498 87.6121 15.0183Z" fill="#506BF0"/>
</svg>
