<svg width="255" height="281" viewBox="0 0 255 281" fill="none" xmlns="http://www.w3.org/2000/svg">
<g filter="url(#filter0_d_0_235)">
<path d="M119.5 7.6188C124.45 4.76068 130.55 4.76068 135.5 7.6188L229.918 62.1312C234.869 64.9893 237.918 70.2714 237.918 75.9876V185.012C237.918 190.729 234.869 196.011 229.918 198.869L135.5 253.381C130.55 256.239 124.45 256.239 119.5 253.381L25.0818 198.869C20.1313 196.011 17.0818 190.729 17.0818 185.012V75.9876C17.0818 70.2714 20.1313 64.9893 25.0818 62.1312L119.5 7.6188Z" fill="white"/>
</g>
<path d="M75.9014 110.04C76.6531 109.893 77.3772 109.792 78.0739 109.737C78.7706 109.682 79.4489 109.655 80.1089 109.655C82.2172 109.655 84.0781 109.976 85.6914 110.617C87.3047 111.259 88.6614 112.139 89.7614 113.257C90.8614 114.357 91.6864 115.659 92.2364 117.162C92.8047 118.647 93.0889 120.242 93.0889 121.947C93.0889 124.092 92.7039 126.054 91.9339 127.832C91.1822 129.592 90.1281 131.114 88.7714 132.397C87.4147 133.681 85.7922 134.68 83.9039 135.395C82.0339 136.092 79.9806 136.44 77.7439 136.44C76.4422 136.44 75.1956 136.303 74.0039 136.028C72.8306 135.752 71.7214 135.386 70.6764 134.927C69.6497 134.451 68.6964 133.91 67.8164 133.305C66.9364 132.682 66.1389 132.022 65.4239 131.325L68.0639 127.805C68.3389 127.438 68.6597 127.163 69.0264 126.98C69.3931 126.778 69.7872 126.677 70.2089 126.677C70.7589 126.677 71.2722 126.833 71.7489 127.145C72.2439 127.438 72.7756 127.768 73.3439 128.135C73.9306 128.483 74.6089 128.804 75.3789 129.097C76.1489 129.391 77.1022 129.537 78.2389 129.537C79.3756 129.537 80.3472 129.354 81.1539 128.987C81.9606 128.602 82.6114 128.089 83.1064 127.447C83.6197 126.787 83.9864 126.027 84.2064 125.165C84.4447 124.285 84.5639 123.35 84.5639 122.36C84.5639 120.417 84.0139 118.941 82.9139 117.932C81.8139 116.906 80.2556 116.392 78.2389 116.392C76.4422 116.392 74.6822 116.732 72.9589 117.41L67.6789 115.98L71.0889 95.9325H91.6039V99.4525C91.6039 100.039 91.5122 100.571 91.3289 101.047C91.1456 101.524 90.8522 101.946 90.4489 102.312C90.0639 102.661 89.5506 102.936 88.9089 103.137C88.2672 103.321 87.4972 103.412 86.5989 103.412H77.0289L75.9014 110.04ZM126.396 115.952C126.396 119.454 126.02 122.488 125.268 125.055C124.517 127.622 123.472 129.748 122.133 131.435C120.813 133.122 119.237 134.377 117.403 135.202C115.588 136.028 113.617 136.44 111.491 136.44C109.364 136.44 107.393 136.028 105.578 135.202C103.782 134.377 102.223 133.122 100.903 131.435C99.5832 129.748 98.5474 127.622 97.7957 125.055C97.0624 122.488 96.6957 119.454 96.6957 115.952C96.6957 112.451 97.0624 109.417 97.7957 106.85C98.5474 104.283 99.5832 102.157 100.903 100.47C102.223 98.7833 103.782 97.5367 105.578 96.73C107.393 95.905 109.364 95.4925 111.491 95.4925C113.617 95.4925 115.588 95.905 117.403 96.73C119.237 97.5367 120.813 98.7833 122.133 100.47C123.472 102.157 124.517 104.283 125.268 106.85C126.02 109.417 126.396 112.451 126.396 115.952ZM117.596 115.952C117.596 113.184 117.422 110.92 117.073 109.16C116.725 107.382 116.257 105.988 115.671 104.98C115.102 103.972 114.452 103.284 113.718 102.917C112.985 102.532 112.242 102.34 111.491 102.34C110.739 102.34 109.997 102.532 109.263 102.917C108.548 103.284 107.907 103.972 107.338 104.98C106.788 105.988 106.339 107.382 105.991 109.16C105.661 110.92 105.496 113.184 105.496 115.952C105.496 118.739 105.661 121.012 105.991 122.772C106.339 124.532 106.788 125.926 107.338 126.952C107.907 127.961 108.548 128.657 109.263 129.042C109.997 129.409 110.739 129.592 111.491 129.592C112.242 129.592 112.985 129.409 113.718 129.042C114.452 128.657 115.102 127.961 115.671 126.952C116.257 125.926 116.725 124.532 117.073 122.772C117.422 121.012 117.596 118.739 117.596 115.952ZM158.3 115.952C158.3 119.454 157.924 122.488 157.172 125.055C156.421 127.622 155.376 129.748 154.038 131.435C152.718 133.122 151.141 134.377 149.308 135.202C147.493 136.028 145.522 136.44 143.395 136.44C141.268 136.44 139.298 136.028 137.483 135.202C135.686 134.377 134.128 133.122 132.808 131.435C131.488 129.748 130.452 127.622 129.7 125.055C128.967 122.488 128.6 119.454 128.6 115.952C128.6 112.451 128.967 109.417 129.7 106.85C130.452 104.283 131.488 102.157 132.808 100.47C134.128 98.7833 135.686 97.5367 137.483 96.73C139.298 95.905 141.268 95.4925 143.395 95.4925C145.522 95.4925 147.493 95.905 149.308 96.73C151.141 97.5367 152.718 98.7833 154.038 100.47C155.376 102.157 156.421 104.283 157.172 106.85C157.924 109.417 158.3 112.451 158.3 115.952ZM149.5 115.952C149.5 113.184 149.326 110.92 148.978 109.16C148.629 107.382 148.162 105.988 147.575 104.98C147.007 103.972 146.356 103.284 145.623 102.917C144.889 102.532 144.147 102.34 143.395 102.34C142.643 102.34 141.901 102.532 141.168 102.917C140.453 103.284 139.811 103.972 139.243 104.98C138.693 105.988 138.243 107.382 137.895 109.16C137.565 110.92 137.4 113.184 137.4 115.952C137.4 118.739 137.565 121.012 137.895 122.772C138.243 124.532 138.693 125.926 139.243 126.952C139.811 127.961 140.453 128.657 141.168 129.042C141.901 129.409 142.643 129.592 143.395 129.592C144.147 129.592 144.889 129.409 145.623 129.042C146.356 128.657 147.007 127.961 147.575 126.952C148.162 125.926 148.629 124.532 148.978 122.772C149.326 121.012 149.5 118.739 149.5 115.952ZM188.967 120.572H178.792V131.517H171.862V120.572H161.742V114.467H171.862V103.577H178.792V114.467H188.967V120.572Z" fill="#18191F"/>
<path d="M115.7 160.226C115.412 158.804 114.242 156.968 111.236 156.968C108.86 156.968 106.898 158.732 106.898 160.874C106.898 162.782 108.194 164.06 110.138 164.456L111.938 164.834C113.036 165.068 113.648 165.734 113.648 166.562C113.648 167.552 112.856 168.326 111.326 168.326C109.49 168.326 108.536 167.102 108.41 165.77L106.394 166.346C106.592 168.182 108.086 170.27 111.326 170.27C114.242 170.27 115.844 168.38 115.844 166.4C115.844 164.6 114.638 163.178 112.388 162.728L110.552 162.35C109.562 162.134 109.058 161.522 109.058 160.712C109.058 159.74 109.958 158.876 111.254 158.876C112.964 158.876 113.63 160.046 113.756 160.838L115.7 160.226ZM125.918 170H128.636L123.416 162.872L128.582 157.238H125.738L120.248 163.358V157.238H118.088V170H120.248V166.328L121.94 164.474L125.918 170ZM134.877 170.27C137.559 170.27 139.647 168.632 139.647 165.554V157.238H137.487V165.428C137.487 167.228 136.515 168.218 134.877 168.218C133.257 168.218 132.267 167.228 132.267 165.428V157.238H130.125V165.554C130.125 168.632 132.213 170.27 134.877 170.27ZM141.567 167.624C141.675 168.614 142.647 170.27 145.185 170.27C147.417 170.27 148.497 168.794 148.497 167.462C148.497 166.166 147.633 165.158 145.977 164.798L144.645 164.528C144.105 164.42 143.763 164.078 143.763 163.61C143.763 163.07 144.285 162.602 145.023 162.602C146.193 162.602 146.571 163.412 146.643 163.916L148.407 163.412C148.263 162.548 147.471 160.964 145.023 160.964C143.205 160.964 141.801 162.26 141.801 163.79C141.801 164.996 142.611 166.004 144.159 166.346L145.455 166.634C146.157 166.778 146.481 167.138 146.481 167.606C146.481 168.146 146.031 168.614 145.167 168.614C144.051 168.614 143.457 167.912 143.385 167.12L141.567 167.624Z" fill="#18191F"/>
<defs>
<filter id="filter0_d_0_235" x="2.08176" y="0.47522" width="250.836" height="280.05" filterUnits="userSpaceOnUse" color-interpolation-filters="sRGB">
<feFlood flood-opacity="0" result="BackgroundImageFix"/>
<feColorMatrix in="SourceAlpha" type="matrix" values="0 0 0 0 0 0 0 0 0 0 0 0 0 0 0 0 0 0 127 0" result="hardAlpha"/>
<feOffset dy="10"/>
<feGaussianBlur stdDeviation="7.5"/>
<feColorMatrix type="matrix" values="0 0 0 0 0.160784 0 0 0 0 0.160784 0 0 0 0 0.164706 0 0 0 0.13 0"/>
<feBlend mode="normal" in2="BackgroundImageFix" result="effect1_dropShadow_0_235"/>
<feBlend mode="normal" in="SourceGraphic" in2="effect1_dropShadow_0_235" result="shape"/>
</filter>
</defs>
</svg>
