<svg width="255" height="281" viewBox="0 0 255 281" fill="none" xmlns="http://www.w3.org/2000/svg">
<g filter="url(#filter0_d_0_241)">
<path d="M119.5 7.6188C124.45 4.76068 130.55 4.76068 135.5 7.6188L229.918 62.1312C234.869 64.9893 237.918 70.2714 237.918 75.9876V185.012C237.918 190.729 234.869 196.011 229.918 198.869L135.5 253.381C130.55 256.239 124.45 256.239 119.5 253.381L25.0818 198.869C20.1313 196.011 17.0818 190.729 17.0818 185.012V75.9876C17.0818 70.2714 20.1313 64.9893 25.0818 62.1312L119.5 7.6188Z" fill="white"/>
</g>
<path d="M107.806 110.04C108.557 109.893 109.282 109.792 109.978 109.737C110.675 109.682 111.353 109.655 112.013 109.655C114.122 109.655 115.982 109.976 117.596 110.617C119.209 111.259 120.566 112.139 121.666 113.257C122.766 114.357 123.591 115.659 124.141 117.162C124.709 118.647 124.993 120.242 124.993 121.947C124.993 124.092 124.608 126.054 123.838 127.832C123.087 129.592 122.032 131.114 120.676 132.397C119.319 133.681 117.697 134.68 115.808 135.395C113.938 136.092 111.885 136.44 109.648 136.44C108.347 136.44 107.1 136.303 105.908 136.028C104.735 135.752 103.626 135.386 102.581 134.927C101.554 134.451 100.601 133.91 99.7207 133.305C98.8407 132.682 98.0432 132.022 97.3282 131.325L99.9682 127.805C100.243 127.438 100.564 127.163 100.931 126.98C101.297 126.778 101.692 126.677 102.113 126.677C102.663 126.677 103.177 126.833 103.653 127.145C104.148 127.438 104.68 127.768 105.248 128.135C105.835 128.483 106.513 128.804 107.283 129.097C108.053 129.391 109.007 129.537 110.143 129.537C111.28 129.537 112.252 129.354 113.058 128.987C113.865 128.602 114.516 128.089 115.011 127.447C115.524 126.787 115.891 126.027 116.111 125.165C116.349 124.285 116.468 123.35 116.468 122.36C116.468 120.417 115.918 118.941 114.818 117.932C113.718 116.906 112.16 116.392 110.143 116.392C108.347 116.392 106.587 116.732 104.863 117.41L99.5832 115.98L102.993 95.9325H123.508V99.4525C123.508 100.039 123.417 100.571 123.233 101.047C123.05 101.524 122.757 101.946 122.353 102.312C121.968 102.661 121.455 102.936 120.813 103.137C120.172 103.321 119.402 103.412 118.503 103.412H108.933L107.806 110.04ZM157.063 120.572H146.888V131.517H139.958V120.572H129.838V114.467H139.958V103.577H146.888V114.467H157.063V120.572Z" fill="#18191F"/>
<path d="M85.1926 170H87.5506L82.5826 157.238H80.0806L75.1126 170H77.3986L78.5866 166.796H83.9866L85.1926 170ZM81.2866 159.578L83.2306 164.798H79.3426L81.2866 159.578ZM93.5026 161.234L91.4326 167.3L89.6506 161.234H87.4186L90.2626 170H92.4046L94.5286 163.7L96.7066 170H98.7946L101.603 161.234H99.4786L97.7326 167.3L95.6626 161.234H93.5026ZM102.602 167.624C102.602 169.01 103.736 170.27 105.572 170.27C106.994 170.27 107.858 169.55 108.272 168.884C108.272 169.586 108.344 169.946 108.362 170H110.306C110.288 169.91 110.198 169.388 110.198 168.596V164.24C110.198 162.494 109.172 160.964 106.472 160.964C104.312 160.964 102.944 162.314 102.782 163.826L104.69 164.258C104.78 163.376 105.392 162.674 106.49 162.674C107.642 162.674 108.146 163.268 108.146 164.006C108.146 164.312 108.002 164.564 107.498 164.636L105.248 164.978C103.754 165.194 102.602 166.058 102.602 167.624ZM105.968 168.632C105.14 168.632 104.69 168.092 104.69 167.498C104.69 166.778 105.212 166.418 105.86 166.31L108.146 165.968V166.364C108.146 168.074 107.138 168.632 105.968 168.632ZM117.852 161.18C117.762 161.162 117.546 161.126 117.294 161.126C116.142 161.126 115.17 161.684 114.756 162.638V161.234H112.722V170H114.81V165.824C114.81 164.186 115.548 163.25 117.168 163.25C117.384 163.25 117.618 163.268 117.852 163.304V161.18ZM120.911 165.59C120.911 163.916 121.919 162.854 123.287 162.854C124.655 162.854 125.591 163.898 125.591 165.572C125.591 167.246 124.637 168.38 123.269 168.38C121.847 168.38 120.911 167.264 120.911 165.59ZM127.607 156.968H125.573V162.26C125.303 161.702 124.529 161 122.999 161C120.533 161 118.823 163.07 118.823 165.59C118.823 168.236 120.515 170.216 123.035 170.216C124.277 170.216 125.195 169.604 125.609 168.866C125.609 169.226 125.663 169.802 125.699 170H127.697C127.679 169.856 127.607 169.19 127.607 168.398V156.968ZM129.561 167.624C129.669 168.614 130.641 170.27 133.179 170.27C135.411 170.27 136.491 168.794 136.491 167.462C136.491 166.166 135.627 165.158 133.971 164.798L132.639 164.528C132.099 164.42 131.757 164.078 131.757 163.61C131.757 163.07 132.279 162.602 133.017 162.602C134.187 162.602 134.565 163.412 134.637 163.916L136.401 163.412C136.257 162.548 135.465 160.964 133.017 160.964C131.199 160.964 129.795 162.26 129.795 163.79C129.795 164.996 130.605 166.004 132.153 166.346L133.449 166.634C134.151 166.778 134.475 167.138 134.475 167.606C134.475 168.146 134.025 168.614 133.161 168.614C132.045 168.614 131.451 167.912 131.379 167.12L129.561 167.624ZM155.015 166.634L151.973 157.238H149.723L146.735 166.562L144.179 157.238H141.911L145.529 170H147.743L150.839 160.352L153.935 170H156.167L159.749 157.238H157.517L155.015 166.634ZM164.51 168.398C163.232 168.398 162.062 167.426 162.062 165.608C162.062 163.79 163.232 162.854 164.51 162.854C165.806 162.854 166.958 163.79 166.958 165.608C166.958 167.444 165.806 168.398 164.51 168.398ZM164.51 160.964C161.9 160.964 159.974 162.926 159.974 165.608C159.974 168.308 161.9 170.27 164.51 170.27C167.138 170.27 169.064 168.308 169.064 165.608C169.064 162.926 167.138 160.964 164.51 160.964ZM173.169 164.942C173.169 163.79 173.799 162.872 174.987 162.872C176.301 162.872 176.787 163.736 176.787 164.816V170H178.875V164.456C178.875 162.53 177.849 160.982 175.707 160.982C174.735 160.982 173.691 161.396 173.115 162.404V161.234H171.081V170H173.169V164.942Z" fill="#18191F"/>
<defs>
<filter id="filter0_d_0_241" x="2.08176" y="0.47522" width="250.836" height="280.05" filterUnits="userSpaceOnUse" color-interpolation-filters="sRGB">
<feFlood flood-opacity="0" result="BackgroundImageFix"/>
<feColorMatrix in="SourceAlpha" type="matrix" values="0 0 0 0 0 0 0 0 0 0 0 0 0 0 0 0 0 0 127 0" result="hardAlpha"/>
<feOffset dy="10"/>
<feGaussianBlur stdDeviation="7.5"/>
<feColorMatrix type="matrix" values="0 0 0 0 0.160784 0 0 0 0 0.160784 0 0 0 0 0.164706 0 0 0 0.13 0"/>
<feBlend mode="normal" in2="BackgroundImageFix" result="effect1_dropShadow_0_241"/>
<feBlend mode="normal" in="SourceGraphic" in2="effect1_dropShadow_0_241" result="shape"/>
</filter>
</defs>
</svg>
