<svg width="255" height="281" viewBox="0 0 255 281" fill="none" xmlns="http://www.w3.org/2000/svg">
<g filter="url(#filter0_d_0_232)">
<path d="M119.5 7.6188C124.45 4.76068 130.55 4.76068 135.5 7.6188L229.918 62.1312C234.869 64.9893 237.918 70.2714 237.918 75.9876V185.012C237.918 190.729 234.869 196.011 229.918 198.869L135.5 253.381C130.55 256.239 124.45 256.239 119.5 253.381L25.0818 198.869C20.1313 196.011 17.0818 190.729 17.0818 185.012V75.9876C17.0818 70.2714 20.1313 64.9893 25.0818 62.1312L119.5 7.6188Z" fill="white"/>
</g>
<path d="M97.16 124.825C97.6 130.435 103.045 135.88 110.965 135.88C119.875 135.88 124.935 129.94 124.935 123.285C124.935 115.585 119.93 111.35 112.615 111.35C110.58 111.35 107.94 112.065 106.565 113.275L107.995 106.565H122.735V99.305H102L97.985 117.84C98.15 117.95 105.575 120.315 105.74 120.37C106.62 119.27 108.325 118.06 110.745 118.06C113.605 118.06 116.3 119.765 116.3 123.34C116.3 126.585 113.88 128.51 110.965 128.51C107.445 128.51 105.355 125.925 105.19 123.175L97.16 124.825ZM128.875 115.2V122.02H139.325V132.745H146.365V122.02H156.76V115.2H146.365V104.475H139.325V115.2H128.875Z" fill="#18191F"/>
<path d="M81.029 170V157.238H78.851V162.512H72.857V157.238H70.697V170H72.857V164.546H78.851V170H81.029ZM83.3188 167.624C83.3188 169.01 84.4528 170.27 86.2888 170.27C87.7108 170.27 88.5748 169.55 88.9888 168.884C88.9888 169.586 89.0608 169.946 89.0788 170H91.0228C91.0048 169.91 90.9148 169.388 90.9148 168.596V164.24C90.9148 162.494 89.8888 160.964 87.1888 160.964C85.0288 160.964 83.6608 162.314 83.4988 163.826L85.4068 164.258C85.4968 163.376 86.1088 162.674 87.2068 162.674C88.3588 162.674 88.8628 163.268 88.8628 164.006C88.8628 164.312 88.7188 164.564 88.2148 164.636L85.9648 164.978C84.4708 165.194 83.3188 166.058 83.3188 167.624ZM86.6848 168.632C85.8568 168.632 85.4068 168.092 85.4068 167.498C85.4068 166.778 85.9288 166.418 86.5768 166.31L88.8628 165.968V166.364C88.8628 168.074 87.8548 168.632 86.6848 168.632ZM95.5089 173.42V169.01C95.9589 169.676 96.9129 170.216 98.1729 170.216C100.693 170.216 102.295 168.236 102.295 165.608C102.295 163.016 100.837 161.036 98.2449 161.036C96.8949 161.036 95.8869 161.666 95.4549 162.422V161.234H93.4389V173.42H95.5089ZM100.207 165.608C100.207 167.282 99.2349 168.362 97.8489 168.362C96.4809 168.362 95.4909 167.282 95.4909 165.608C95.4909 163.97 96.4809 162.89 97.8489 162.89C99.2529 162.89 100.207 163.97 100.207 165.608ZM106.372 173.42V169.01C106.822 169.676 107.776 170.216 109.036 170.216C111.556 170.216 113.158 168.236 113.158 165.608C113.158 163.016 111.7 161.036 109.108 161.036C107.758 161.036 106.75 161.666 106.318 162.422V161.234H104.302V173.42H106.372ZM111.07 165.608C111.07 167.282 110.098 168.362 108.712 168.362C107.344 168.362 106.354 167.282 106.354 165.608C106.354 163.97 107.344 162.89 108.712 162.89C110.116 162.89 111.07 163.97 111.07 165.608ZM117.425 173.546L123.005 161.234H120.791L118.433 166.778L115.913 161.234H113.555L117.299 168.956L115.193 173.546H117.425ZM134.849 170.27C138.107 170.27 140.051 168.2 140.627 166.04L138.647 165.392C138.215 166.832 136.991 168.2 134.849 168.2C132.671 168.2 130.619 166.616 130.619 163.628C130.619 160.532 132.725 159.002 134.831 159.002C136.973 159.002 138.161 160.244 138.539 161.792L140.573 161.108C139.997 158.876 138.071 156.968 134.831 156.968C131.519 156.968 128.405 159.47 128.405 163.628C128.405 167.786 131.411 170.27 134.849 170.27ZM144.552 170V156.968H142.464V170H144.552ZM149.316 170V161.234H147.246V170H149.316ZM146.922 158.156C146.922 158.912 147.534 159.506 148.272 159.506C149.028 159.506 149.64 158.912 149.64 158.156C149.64 157.4 149.028 156.788 148.272 156.788C147.534 156.788 146.922 157.4 146.922 158.156ZM153.467 164.654C153.539 163.718 154.295 162.71 155.609 162.71C157.049 162.71 157.733 163.628 157.769 164.654H153.467ZM158.003 166.94C157.715 167.804 157.067 168.47 155.807 168.47C154.511 168.47 153.467 167.516 153.413 166.184H159.821C159.839 166.148 159.875 165.86 159.875 165.518C159.875 162.746 158.291 160.964 155.591 160.964C153.377 160.964 151.325 162.8 151.325 165.572C151.325 168.542 153.431 170.27 155.807 170.27C157.913 170.27 159.299 169.028 159.767 167.498L158.003 166.94ZM163.959 164.942C163.959 163.79 164.589 162.872 165.777 162.872C167.091 162.872 167.577 163.736 167.577 164.816V170H169.665V164.456C169.665 162.53 168.639 160.982 166.497 160.982C165.525 160.982 164.481 161.396 163.905 162.404V161.234H161.871V170H163.959V164.942ZM174.852 158.552H172.962V159.866C172.962 160.64 172.548 161.234 171.612 161.234H171.162V163.088H172.782V167.498C172.782 169.136 173.79 170.108 175.41 170.108C176.166 170.108 176.562 169.964 176.688 169.91V168.182C176.598 168.2 176.256 168.254 175.968 168.254C175.194 168.254 174.852 167.93 174.852 167.156V163.088H176.67V161.234H174.852V158.552ZM178.182 167.624C178.29 168.614 179.262 170.27 181.8 170.27C184.032 170.27 185.112 168.794 185.112 167.462C185.112 166.166 184.248 165.158 182.592 164.798L181.26 164.528C180.72 164.42 180.378 164.078 180.378 163.61C180.378 163.07 180.9 162.602 181.638 162.602C182.808 162.602 183.186 163.412 183.258 163.916L185.022 163.412C184.878 162.548 184.086 160.964 181.638 160.964C179.82 160.964 178.416 162.26 178.416 163.79C178.416 164.996 179.226 166.004 180.774 166.346L182.07 166.634C182.772 166.778 183.096 167.138 183.096 167.606C183.096 168.146 182.646 168.614 181.782 168.614C180.666 168.614 180.072 167.912 180 167.12L178.182 167.624Z" fill="#18191F"/>
<defs>
<filter id="filter0_d_0_232" x="2.08179" y="0.47522" width="250.836" height="280.05" filterUnits="userSpaceOnUse" color-interpolation-filters="sRGB">
<feFlood flood-opacity="0" result="BackgroundImageFix"/>
<feColorMatrix in="SourceAlpha" type="matrix" values="0 0 0 0 0 0 0 0 0 0 0 0 0 0 0 0 0 0 127 0" result="hardAlpha"/>
<feOffset dy="10"/>
<feGaussianBlur stdDeviation="7.5"/>
<feColorMatrix type="matrix" values="0 0 0 0 0.160784 0 0 0 0 0.160784 0 0 0 0 0.164706 0 0 0 0.13 0"/>
<feBlend mode="normal" in2="BackgroundImageFix" result="effect1_dropShadow_0_232"/>
<feBlend mode="normal" in="SourceGraphic" in2="effect1_dropShadow_0_232" result="shape"/>
</filter>
</defs>
</svg>
