<svg width="255" height="281" viewBox="0 0 255 281" fill="none" xmlns="http://www.w3.org/2000/svg">
<g filter="url(#filter0_d_0_238)">
<path d="M119.5 7.6188C124.45 4.76068 130.55 4.76068 135.5 7.6188L229.918 62.1312C234.869 64.9893 237.918 70.2714 237.918 75.9876V185.012C237.918 190.729 234.869 196.011 229.918 198.869L135.5 253.381C130.55 256.239 124.45 256.239 119.5 253.381L25.0818 198.869C20.1313 196.011 17.0818 190.729 17.0818 185.012V75.9876C17.0818 70.2714 20.1313 64.9893 25.0818 62.1312L119.5 7.6188Z" fill="white"/>
</g>
<path d="M82.0636 107.372C82.3569 105.374 82.9161 103.632 83.7411 102.147C84.5844 100.662 85.6202 99.425 86.8486 98.435C88.0952 97.445 89.5161 96.7117 91.1111 96.235C92.7061 95.74 94.4202 95.4925 96.2536 95.4925C98.2336 95.4925 99.9936 95.7767 101.534 96.345C103.074 96.895 104.375 97.6467 105.439 98.6C106.502 99.5533 107.309 100.662 107.859 101.927C108.409 103.174 108.684 104.494 108.684 105.887C108.684 107.152 108.555 108.271 108.299 109.242C108.042 110.196 107.657 111.03 107.144 111.745C106.649 112.442 106.025 113.037 105.274 113.532C104.54 114.009 103.697 114.412 102.744 114.742C107.18 116.301 109.399 119.326 109.399 123.817C109.399 125.944 109.014 127.796 108.244 129.372C107.474 130.949 106.438 132.26 105.136 133.305C103.853 134.35 102.359 135.138 100.654 135.67C98.9486 136.183 97.1702 136.44 95.3186 136.44C93.4119 136.44 91.7161 136.238 90.2311 135.835C88.7461 135.413 87.4261 134.772 86.2711 133.91C85.1161 133.03 84.0986 131.912 83.2186 130.555C82.3569 129.198 81.6052 127.585 80.9636 125.715L84.7586 124.175C85.7486 123.79 86.6652 123.689 87.5086 123.872C88.3519 124.056 88.9569 124.477 89.3236 125.137C90.1486 126.659 91.0194 127.768 91.9361 128.465C92.8711 129.143 93.9619 129.482 95.2086 129.482C96.1619 129.482 96.9869 129.327 97.6836 129.015C98.3986 128.685 98.9852 128.272 99.4436 127.777C99.9202 127.264 100.278 126.687 100.516 126.045C100.754 125.403 100.874 124.752 100.874 124.092C100.874 123.231 100.809 122.461 100.681 121.782C100.571 121.086 100.241 120.49 99.6911 119.995C99.1411 119.5 98.3069 119.124 97.1886 118.867C96.0886 118.592 94.5486 118.455 92.5686 118.455V112.57C94.2369 112.57 95.5844 112.442 96.6111 112.185C97.6377 111.928 98.4261 111.58 98.9761 111.14C99.5444 110.682 99.9202 110.132 100.104 109.49C100.287 108.848 100.379 108.142 100.379 107.372C100.379 105.796 99.9936 104.586 99.2236 103.742C98.4719 102.881 97.3169 102.45 95.7586 102.45C94.4936 102.45 93.4211 102.789 92.5411 103.467C91.6794 104.127 91.0836 104.952 90.7536 105.942C90.3686 106.951 89.8644 107.62 89.2411 107.95C88.6177 108.28 87.7286 108.353 86.5736 108.17L82.0636 107.372ZM142.348 115.952C142.348 119.454 141.972 122.488 141.22 125.055C140.469 127.622 139.424 129.748 138.085 131.435C136.765 133.122 135.189 134.377 133.355 135.202C131.54 136.028 129.57 136.44 127.443 136.44C125.316 136.44 123.345 136.028 121.53 135.202C119.734 134.377 118.175 133.122 116.855 131.435C115.535 129.748 114.5 127.622 113.748 125.055C113.015 122.488 112.648 119.454 112.648 115.952C112.648 112.451 113.015 109.417 113.748 106.85C114.5 104.283 115.535 102.157 116.855 100.47C118.175 98.7833 119.734 97.5367 121.53 96.73C123.345 95.905 125.316 95.4925 127.443 95.4925C129.57 95.4925 131.54 95.905 133.355 96.73C135.189 97.5367 136.765 98.7833 138.085 100.47C139.424 102.157 140.469 104.283 141.22 106.85C141.972 109.417 142.348 112.451 142.348 115.952ZM133.548 115.952C133.548 113.184 133.374 110.92 133.025 109.16C132.677 107.382 132.21 105.988 131.623 104.98C131.055 103.972 130.404 103.284 129.67 102.917C128.937 102.532 128.195 102.34 127.443 102.34C126.691 102.34 125.949 102.532 125.215 102.917C124.5 103.284 123.859 103.972 123.29 104.98C122.74 105.988 122.291 107.382 121.943 109.16C121.613 110.92 121.448 113.184 121.448 115.952C121.448 118.739 121.613 121.012 121.943 122.772C122.291 124.532 122.74 125.926 123.29 126.952C123.859 127.961 124.5 128.657 125.215 129.042C125.949 129.409 126.691 129.592 127.443 129.592C128.195 129.592 128.937 129.409 129.67 129.042C130.404 128.657 131.055 127.961 131.623 126.952C132.21 125.926 132.677 124.532 133.025 122.772C133.374 121.012 133.548 118.739 133.548 115.952ZM174.252 115.952C174.252 119.454 173.876 122.488 173.125 125.055C172.373 127.622 171.328 129.748 169.99 131.435C168.67 133.122 167.093 134.377 165.26 135.202C163.445 136.028 161.474 136.44 159.347 136.44C157.22 136.44 155.25 136.028 153.435 135.202C151.638 134.377 150.08 133.122 148.76 131.435C147.44 129.748 146.404 127.622 145.652 125.055C144.919 122.488 144.552 119.454 144.552 115.952C144.552 112.451 144.919 109.417 145.652 106.85C146.404 104.283 147.44 102.157 148.76 100.47C150.08 98.7833 151.638 97.5367 153.435 96.73C155.25 95.905 157.22 95.4925 159.347 95.4925C161.474 95.4925 163.445 95.905 165.26 96.73C167.093 97.5367 168.67 98.7833 169.99 100.47C171.328 102.157 172.373 104.283 173.125 106.85C173.876 109.417 174.252 112.451 174.252 115.952ZM165.452 115.952C165.452 113.184 165.278 110.92 164.93 109.16C164.581 107.382 164.114 105.988 163.527 104.98C162.959 103.972 162.308 103.284 161.575 102.917C160.841 102.532 160.099 102.34 159.347 102.34C158.595 102.34 157.853 102.532 157.12 102.917C156.405 103.284 155.763 103.972 155.195 104.98C154.645 105.988 154.195 107.382 153.847 109.16C153.517 110.92 153.352 113.184 153.352 115.952C153.352 118.739 153.517 121.012 153.847 122.772C154.195 124.532 154.645 125.926 155.195 126.952C155.763 127.961 156.405 128.657 157.12 129.042C157.853 129.409 158.595 129.592 159.347 129.592C160.099 129.592 160.841 129.409 161.575 129.042C162.308 128.657 162.959 127.961 163.527 126.952C164.114 125.926 164.581 124.532 164.93 122.772C165.278 121.012 165.452 118.739 165.452 115.952Z" fill="#18191F"/>
<path d="M47.2545 168.02V159.218H49.5405C51.7545 159.218 53.5725 160.658 53.5725 163.646C53.5725 166.598 51.7365 168.02 49.5225 168.02H47.2545ZM49.5945 170C53.0505 170 55.8225 167.732 55.8225 163.646C55.8225 159.542 53.0865 157.238 49.6125 157.238H45.0945V170H49.5945ZM59.3978 164.654C59.4698 163.718 60.2258 162.71 61.5398 162.71C62.9798 162.71 63.6638 163.628 63.6998 164.654H59.3978ZM63.9338 166.94C63.6458 167.804 62.9978 168.47 61.7378 168.47C60.4418 168.47 59.3978 167.516 59.3438 166.184H65.7518C65.7698 166.148 65.8058 165.86 65.8058 165.518C65.8058 162.746 64.2218 160.964 61.5218 160.964C59.3078 160.964 57.2558 162.8 57.2558 165.572C57.2558 168.542 59.3618 170.27 61.7378 170.27C63.8438 170.27 65.2298 169.028 65.6978 167.498L63.9338 166.94ZM69.2052 165.59C69.2052 163.916 70.2132 162.854 71.5812 162.854C72.9492 162.854 73.8852 163.898 73.8852 165.572C73.8852 167.246 72.9312 168.38 71.5632 168.38C70.1412 168.38 69.2052 167.264 69.2052 165.59ZM75.9012 156.968H73.8672V162.26C73.5972 161.702 72.8232 161 71.2932 161C68.8272 161 67.1172 163.07 67.1172 165.59C67.1172 168.236 68.8092 170.216 71.3292 170.216C72.5712 170.216 73.4892 169.604 73.9032 168.866C73.9032 169.226 73.9572 169.802 73.9932 170H75.9912C75.9732 169.856 75.9012 169.19 75.9012 168.398V156.968ZM80.6993 170V161.234H78.6293V170H80.6993ZM78.3053 158.156C78.3053 158.912 78.9173 159.506 79.6553 159.506C80.4113 159.506 81.0233 158.912 81.0233 158.156C81.0233 157.4 80.4113 156.788 79.6553 156.788C78.9173 156.788 78.3053 157.4 78.3053 158.156ZM87.209 162.89C88.541 162.89 89.135 163.754 89.333 164.528L91.205 163.844C90.845 162.44 89.549 160.964 87.191 160.964C84.671 160.964 82.709 162.908 82.709 165.608C82.709 168.272 84.671 170.27 87.245 170.27C89.549 170.27 90.863 168.776 91.277 167.408L89.441 166.742C89.243 167.408 88.613 168.362 87.245 168.362C85.931 168.362 84.797 167.372 84.797 165.608C84.797 163.844 85.931 162.89 87.209 162.89ZM92.5385 167.624C92.5385 169.01 93.6725 170.27 95.5085 170.27C96.9305 170.27 97.7945 169.55 98.2085 168.884C98.2085 169.586 98.2805 169.946 98.2985 170H100.243C100.225 169.91 100.135 169.388 100.135 168.596V164.24C100.135 162.494 99.1085 160.964 96.4085 160.964C94.2485 160.964 92.8805 162.314 92.7185 163.826L94.6265 164.258C94.7165 163.376 95.3285 162.674 96.4265 162.674C97.5785 162.674 98.0825 163.268 98.0825 164.006C98.0825 164.312 97.9385 164.564 97.4345 164.636L95.1845 164.978C93.6905 165.194 92.5385 166.058 92.5385 167.624ZM95.9045 168.632C95.0765 168.632 94.6265 168.092 94.6265 167.498C94.6265 166.778 95.1485 166.418 95.7965 166.31L98.0825 165.968V166.364C98.0825 168.074 97.0745 168.632 95.9045 168.632ZM105.269 158.552H103.379V159.866C103.379 160.64 102.965 161.234 102.029 161.234H101.579V163.088H103.199V167.498C103.199 169.136 104.207 170.108 105.827 170.108C106.583 170.108 106.979 169.964 107.105 169.91V168.182C107.015 168.2 106.673 168.254 106.385 168.254C105.611 168.254 105.269 167.93 105.269 167.156V163.088H107.087V161.234H105.269V158.552ZM110.603 164.654C110.675 163.718 111.431 162.71 112.745 162.71C114.185 162.71 114.869 163.628 114.905 164.654H110.603ZM115.139 166.94C114.851 167.804 114.203 168.47 112.943 168.47C111.647 168.47 110.603 167.516 110.549 166.184H116.957C116.975 166.148 117.011 165.86 117.011 165.518C117.011 162.746 115.427 160.964 112.727 160.964C110.513 160.964 108.461 162.8 108.461 165.572C108.461 168.542 110.567 170.27 112.943 170.27C115.049 170.27 116.435 169.028 116.903 167.498L115.139 166.94ZM120.41 165.59C120.41 163.916 121.418 162.854 122.786 162.854C124.154 162.854 125.09 163.898 125.09 165.572C125.09 167.246 124.136 168.38 122.768 168.38C121.346 168.38 120.41 167.264 120.41 165.59ZM127.106 156.968H125.072V162.26C124.802 161.702 124.028 161 122.498 161C120.032 161 118.322 163.07 118.322 165.59C118.322 168.236 120.014 170.216 122.534 170.216C123.776 170.216 124.694 169.604 125.108 168.866C125.108 169.226 125.162 169.802 125.198 170H127.196C127.178 169.856 127.106 169.19 127.106 168.398V156.968ZM148.519 170V157.238H145.585L141.499 166.976L137.359 157.238H134.479V170H136.585V160.64L140.527 170H142.399L146.377 160.604V170H148.519ZM152.826 164.654C152.898 163.718 153.654 162.71 154.968 162.71C156.408 162.71 157.092 163.628 157.128 164.654H152.826ZM157.362 166.94C157.074 167.804 156.426 168.47 155.166 168.47C153.87 168.47 152.826 167.516 152.772 166.184H159.18C159.198 166.148 159.234 165.86 159.234 165.518C159.234 162.746 157.65 160.964 154.95 160.964C152.736 160.964 150.684 162.8 150.684 165.572C150.684 168.542 152.79 170.27 155.166 170.27C157.272 170.27 158.658 169.028 159.126 167.498L157.362 166.94ZM163.299 170V164.798C163.299 163.682 164.001 162.854 165.117 162.854C166.305 162.854 166.809 163.646 166.809 164.654V170H168.861V164.798C168.861 163.718 169.581 162.854 170.679 162.854C171.849 162.854 172.371 163.628 172.371 164.654V170H174.387V164.312C174.387 161.99 172.875 160.982 171.291 160.982C170.157 160.982 169.131 161.378 168.447 162.53C167.979 161.504 166.971 160.982 165.819 160.982C164.829 160.982 163.731 161.45 163.227 162.35V161.234H161.229V170H163.299ZM178.978 170V168.83C179.482 169.676 180.436 170.216 181.678 170.216C184.234 170.216 185.8 168.218 185.8 165.572C185.8 162.998 184.378 161 181.75 161C180.4 161 179.392 161.63 178.996 162.314V156.968H176.944V170H178.978ZM183.694 165.59C183.694 167.318 182.704 168.362 181.336 168.362C180.004 168.362 178.978 167.318 178.978 165.59C178.978 163.844 180.004 162.854 181.336 162.854C182.722 162.854 183.694 163.844 183.694 165.59ZM189.265 164.654C189.337 163.718 190.093 162.71 191.407 162.71C192.847 162.71 193.531 163.628 193.567 164.654H189.265ZM193.801 166.94C193.513 167.804 192.865 168.47 191.605 168.47C190.309 168.47 189.265 167.516 189.211 166.184H195.619C195.637 166.148 195.673 165.86 195.673 165.518C195.673 162.746 194.089 160.964 191.389 160.964C189.175 160.964 187.123 162.8 187.123 165.572C187.123 168.542 189.229 170.27 191.605 170.27C193.711 170.27 195.097 169.028 195.565 167.498L193.801 166.94ZM202.798 161.18C202.708 161.162 202.492 161.126 202.24 161.126C201.088 161.126 200.116 161.684 199.702 162.638V161.234H197.668V170H199.756V165.824C199.756 164.186 200.494 163.25 202.114 163.25C202.33 163.25 202.564 163.268 202.798 163.304V161.18ZM203.785 167.624C203.893 168.614 204.865 170.27 207.403 170.27C209.635 170.27 210.715 168.794 210.715 167.462C210.715 166.166 209.851 165.158 208.195 164.798L206.863 164.528C206.323 164.42 205.981 164.078 205.981 163.61C205.981 163.07 206.503 162.602 207.241 162.602C208.411 162.602 208.789 163.412 208.861 163.916L210.625 163.412C210.481 162.548 209.689 160.964 207.241 160.964C205.423 160.964 204.019 162.26 204.019 163.79C204.019 164.996 204.829 166.004 206.377 166.346L207.673 166.634C208.375 166.778 208.699 167.138 208.699 167.606C208.699 168.146 208.249 168.614 207.385 168.614C206.269 168.614 205.675 167.912 205.603 167.12L203.785 167.624Z" fill="#18191F"/>
<defs>
<filter id="filter0_d_0_238" x="2.08176" y="0.47522" width="250.836" height="280.05" filterUnits="userSpaceOnUse" color-interpolation-filters="sRGB">
<feFlood flood-opacity="0" result="BackgroundImageFix"/>
<feColorMatrix in="SourceAlpha" type="matrix" values="0 0 0 0 0 0 0 0 0 0 0 0 0 0 0 0 0 0 127 0" result="hardAlpha"/>
<feOffset dy="10"/>
<feGaussianBlur stdDeviation="7.5"/>
<feColorMatrix type="matrix" values="0 0 0 0 0.160784 0 0 0 0 0.160784 0 0 0 0 0.164706 0 0 0 0.13 0"/>
<feBlend mode="normal" in2="BackgroundImageFix" result="effect1_dropShadow_0_238"/>
<feBlend mode="normal" in="SourceGraphic" in2="effect1_dropShadow_0_238" result="shape"/>
</filter>
</defs>
</svg>
