<svg width="41" height="32" viewBox="0 0 41 32" fill="none" xmlns="http://www.w3.org/2000/svg">
<path d="M34.7309 2.65811C32.0421 1.40004 29.1975 0.506125 26.2724 0C25.908 0.658723 25.4824 1.54471 25.1888 2.24955C22.035 1.77533 18.9102 1.77533 15.8144 2.24955C15.521 1.54487 15.0856 0.658723 14.7179 0C11.7899 0.506359 8.94295 1.40255 6.25287 2.66468C0.899808 10.754 -0.551368 18.6422 0.17414 26.4187C3.72464 29.0701 7.16544 30.6808 10.5483 31.7348C11.389 30.5787 12.1322 29.3546 12.7701 28.0754C11.5555 27.613 10.3846 27.0431 9.27134 26.3726C9.56431 26.1555 9.85038 25.9292 10.1291 25.694C16.8752 28.8494 24.2053 28.8494 30.871 25.694C31.1509 25.9276 31.4369 26.1539 31.7286 26.3726C30.6135 27.0449 29.4404 27.6159 28.2234 28.0788C28.865 29.3632 29.6069 30.5884 30.4453 31.738C33.8313 30.6842 37.2753 29.0735 40.8258 26.4187C41.6772 17.4039 39.3716 9.58791 34.7309 2.65795V2.65811ZM13.6892 21.6363C11.6641 21.6363 10.0033 19.7457 10.0033 17.4434C10.0033 15.1412 11.6287 13.2473 13.6892 13.2473C15.75 13.2473 17.4106 15.1378 17.3752 17.4434C17.3784 19.7457 15.75 21.6363 13.6892 21.6363ZM27.3107 21.6363C25.2855 21.6363 23.6249 19.7457 23.6249 17.4434C23.6249 15.1412 25.2501 13.2473 27.3107 13.2473C29.3714 13.2473 31.0321 15.1378 30.9967 17.4434C30.9967 19.7457 29.3714 21.6363 27.3107 21.6363Z" fill="#5865F2"/>
</svg>
