<svg width="27" height="23" viewBox="0 0 27 23" fill="none" xmlns="http://www.w3.org/2000/svg">
<g clip-path="url(#clip0_0_483)">
<path d="M25.3125 0.694336H0.9375C0.418945 0.694336 0 1.11328 0 1.63184V20.3818C0 20.9004 0.418945 21.3193 0.9375 21.3193H25.3125C25.8311 21.3193 26.25 20.9004 26.25 20.3818V1.63184C26.25 1.11328 25.8311 0.694336 25.3125 0.694336ZM24.1406 3.94043V19.21H2.10938V3.94043L1.30078 3.31055L2.45215 1.83105L3.70605 2.80664H22.5469L23.8008 1.83105L24.9521 3.31055L24.1406 3.94043ZM22.5469 2.80371L13.125 10.1279L3.70312 2.80371L2.44922 1.82812L1.29785 3.30762L2.10645 3.9375L12.1143 11.7188C12.4021 11.9423 12.7561 12.0637 13.1206 12.0637C13.4851 12.0637 13.8391 11.9423 14.127 11.7188L24.1406 3.94043L24.9492 3.31055L23.7979 1.83105L22.5469 2.80371Z" fill="#0655FF"/>
</g>
<defs>
<clipPath id="clip0_0_483">
<rect width="27" height="22" fill="white" transform="translate(0 0.00683594)"/>
</clipPath>
</defs>
</svg>
