<svg width="42" height="41" viewBox="0 0 42 41" fill="none" xmlns="http://www.w3.org/2000/svg">
<path d="M36.2103 4.48975H6.7512C6.04274 4.48975 5.47037 5.06212 5.47037 5.77058V35.2297C5.47037 35.9382 6.04274 36.5105 6.7512 36.5105H36.2103C36.9188 36.5105 37.4911 35.9382 37.4911 35.2297V5.77058C37.4911 5.06212 36.9188 4.48975 36.2103 4.48975ZM32.5119 13.8358H29.9543C27.949 13.8358 27.5607 14.7884 27.5607 16.1893V19.2753H32.3478L31.7234 24.1065H27.5607V36.5105H22.5695V24.1105H18.3948V19.2753H22.5695V15.713C22.5695 11.5783 25.0951 9.32488 28.7855 9.32488C30.5546 9.32488 32.0716 9.45697 32.5159 9.51701V13.8358H32.5119Z" fill="#0655FF"/>
</svg>
