<svg width="54" height="55" viewBox="0 0 54 55" fill="none" xmlns="http://www.w3.org/2000/svg">
<rect x="0.614014" y="0.746887" width="52.807" height="53.4187" rx="26.4035" fill="#FFDE06"/>
<path d="M22.7193 17.0176C24.5107 17.0176 26.2287 17.6897 27.4954 18.886C28.7621 20.0823 29.4737 21.7049 29.4737 23.3968C29.4737 24.9393 28.8965 26.3544 27.9263 27.4562H38.0702V37.8948H27.0175V28.3145C25.8509 29.2308 24.3526 29.7759 22.7193 29.7759C20.9279 29.7759 19.2099 29.1038 17.9432 27.9075C16.6765 26.7112 15.9649 25.0886 15.9649 23.3968C15.9649 21.7049 16.6765 20.0823 17.9432 18.886C19.2099 17.6897 20.9279 17.0176 22.7193 17.0176Z" fill="white"/>
</svg>
