<svg width="54" height="54" viewBox="0 0 54 54" fill="none" xmlns="http://www.w3.org/2000/svg">
<rect x="0.649094" y="0.403587" width="52.807" height="52.807" rx="26.4035" fill="#0655FF"/>
<path d="M22.2564 28.3283L25.4877 25.097L18.4199 18.0407C17.8718 17.4926 16.9241 17.641 16.5816 18.3489C15.7709 20.0502 16.0678 22.1397 17.4722 23.5556L22.2564 28.3283ZM29.9978 26.2617C31.7448 27.0723 34.1997 26.5014 36.0151 24.686C38.196 22.5051 38.6184 19.3766 36.94 17.6981C35.273 16.0311 32.1444 16.4421 29.9521 18.623C28.1367 20.4384 27.5658 22.8933 28.3764 24.6403L18.0317 34.9851C17.8182 35.1985 17.6983 35.4881 17.6983 35.79C17.6983 36.0919 17.8182 36.3815 18.0317 36.595C18.2452 36.8085 18.5347 36.9284 18.8367 36.9284C19.1386 36.9284 19.4281 36.8085 19.6416 36.595L26.7094 29.5501L33.7658 36.6064C33.8715 36.7121 33.997 36.796 34.1351 36.8532C34.2732 36.9104 34.4212 36.9398 34.5707 36.9398C34.7202 36.9398 34.8683 36.9104 35.0064 36.8532C35.1445 36.796 35.27 36.7121 35.3757 36.6064C35.4814 36.5007 35.5653 36.3752 35.6225 36.2371C35.6797 36.099 35.7092 35.9509 35.7092 35.8014C35.7092 35.6519 35.6797 35.5039 35.6225 35.3658C35.5653 35.2277 35.4814 35.1022 35.3757 34.9965L28.3194 27.9401L29.9978 26.2617Z" fill="white"/>
</svg>
