<svg width="42" height="41" viewBox="0 0 42 41" fill="none" xmlns="http://www.w3.org/2000/svg">
<path d="M36.1981 4.48975H6.73899C6.03053 4.48975 5.45816 5.06212 5.45816 5.77058V35.2297C5.45816 35.9382 6.03053 36.5105 6.73899 36.5105H36.1981C36.9066 36.5105 37.4789 35.9382 37.4789 35.2297V5.77058C37.4789 5.06212 36.9066 4.48975 36.1981 4.48975ZM14.9563 31.7755H10.2052V16.4935H14.9563V31.7755ZM12.5828 14.4042C12.0381 14.4042 11.5057 14.2427 11.0529 13.9401C10.6 13.6375 10.247 13.2074 10.0386 12.7042C9.83019 12.201 9.77565 11.6473 9.88191 11.1132C9.98817 10.579 10.2504 10.0883 10.6356 9.70317C11.0207 9.31805 11.5114 9.05577 12.0455 8.94952C12.5797 8.84326 13.1334 8.8978 13.6366 9.10623C14.1398 9.31465 14.5699 9.66761 14.8725 10.1205C15.1751 10.5733 15.3366 11.1057 15.3366 11.6504C15.3326 13.1714 14.0998 14.4042 12.5828 14.4042ZM32.7439 31.7755H27.9968V24.3426C27.9968 22.5695 27.9648 20.292 25.5272 20.292C23.0576 20.292 22.6773 22.2213 22.6773 24.2145V31.7755H17.9343V16.4935H22.4892V18.5829H22.5533C23.1857 17.3821 24.7347 16.1133 27.0482 16.1133C31.8593 16.1133 32.7439 19.2793 32.7439 23.394V31.7755Z" fill="#0655FF"/>
</svg>
