<svg width="26" height="33" viewBox="0 0 26 33" fill="none" xmlns="http://www.w3.org/2000/svg">
<g clip-path="url(#clip0_0_471)">
<path d="M12.9998 19.1735C16.4927 19.1735 19.3332 16.333 19.3332 12.8402C19.3332 9.34734 16.4927 6.50684 12.9998 6.50684C9.507 6.50684 6.6665 9.34734 6.6665 12.8402C6.6665 16.333 9.507 19.1735 12.9998 19.1735ZM12.9998 9.6735C14.7463 9.6735 16.1665 11.0938 16.1665 12.8402C16.1665 14.5866 14.7463 16.0068 12.9998 16.0068C11.2534 16.0068 9.83317 14.5866 9.83317 12.8402C9.83317 11.0938 11.2534 9.6735 12.9998 9.6735Z" fill="#0655FF"/>
<path d="M11.7487 31.5455C12.0166 31.7369 12.3377 31.8398 12.667 31.8398C12.9963 31.8398 13.3173 31.7369 13.5853 31.5455C14.0667 31.2051 25.3796 23.0367 25.3337 12.84C25.3337 5.85592 19.6511 0.17334 12.667 0.17334C5.68291 0.17334 0.000322499 5.85592 0.000322499 12.8321C-0.0455942 23.0367 11.2673 31.2051 11.7487 31.5455ZM12.667 3.34001C17.9062 3.34001 22.167 7.60076 22.167 12.8479C22.2002 19.8748 15.2193 26.1843 12.667 28.2538C10.1162 26.1828 3.13374 19.8716 3.16699 12.84C3.16699 7.60076 7.42774 3.34001 12.667 3.34001Z" fill="#0655FF"/>
</g>
<defs>
<clipPath id="clip0_0_471">
<rect width="26" height="32" fill="white" transform="translate(0 0.00683594)"/>
</clipPath>
</defs>
</svg>
