<svg width="54" height="54" viewBox="0 0 54 54" fill="none" xmlns="http://www.w3.org/2000/svg">
<rect x="0.614014" y="0.0977287" width="52.807" height="53.4187" rx="26.4035" fill="#0655FF"/>
<path d="M22.7193 16.3684C24.5107 16.3684 26.2287 17.0405 27.4954 18.2368C28.7621 19.4331 29.4737 21.0557 29.4737 22.7476C29.4737 24.2901 28.8965 25.7052 27.9263 26.807H38.0702V37.2456H27.0175V27.6653C25.8509 28.5816 24.3526 29.1267 22.7193 29.1267C20.9279 29.1267 19.2099 28.4546 17.9432 27.2583C16.6765 26.062 15.9649 24.4394 15.9649 22.7476C15.9649 21.0557 16.6765 19.4331 17.9432 18.2368C19.2099 17.0405 20.9279 16.3684 22.7193 16.3684Z" fill="white"/>
</svg>
