<svg width="53" height="53" viewBox="0 0 53 53" fill="none" xmlns="http://www.w3.org/2000/svg">
<rect x="-1.52588e-05" y="0.0527344" width="52.807" height="52.807" rx="26.4035" fill="#FFDE06"/>
<path d="M21.6072 27.9775L24.8386 24.7462L17.7708 17.6898C17.2227 17.1417 16.275 17.2902 15.9325 17.9981C15.1218 19.6994 15.4187 21.7889 16.8231 23.2047L21.6072 27.9775ZM29.3487 25.9108C31.0957 26.7215 33.5505 26.1506 35.366 24.3351C37.5469 22.1543 37.9693 19.0257 36.2909 17.3473C34.6238 15.6802 31.4953 16.0913 29.303 18.2721C27.4875 20.0876 26.9166 22.5425 27.7273 24.2894L17.3826 34.6342C17.1691 34.8477 17.0491 35.1373 17.0491 35.4392C17.0491 35.7411 17.1691 36.0307 17.3826 36.2442C17.5961 36.4576 17.8856 36.5776 18.1875 36.5776C18.4895 36.5776 18.779 36.4576 18.9925 36.2442L26.0603 29.1992L33.1166 36.2556C33.2224 36.3613 33.3479 36.4451 33.486 36.5023C33.6241 36.5596 33.7721 36.589 33.9216 36.589C34.0711 36.589 34.2192 36.5596 34.3573 36.5023C34.4954 36.4451 34.6209 36.3613 34.7266 36.2556C34.8323 36.1499 34.9162 36.0244 34.9734 35.8862C35.0306 35.7481 35.06 35.6001 35.06 35.4506C35.06 35.3011 35.0306 35.1531 34.9734 35.0149C34.9162 34.8768 34.8323 34.7513 34.7266 34.6456L27.6702 27.5893L29.3487 25.9108Z" fill="white"/>
</svg>
