<svg width="54" height="53" viewBox="0 0 54 53" fill="none" xmlns="http://www.w3.org/2000/svg">
<rect x="0.631546" y="0.360962" width="52.807" height="52.1906" rx="26.0953" fill="#0655FF"/>
<path d="M25.2225 36.1192C27.0629 35.3549 26.6597 33.2475 25.7291 31.9154C24.8089 30.5505 23.5371 29.6115 22.255 28.7052C21.3402 28.0963 20.5234 27.337 19.8356 26.4559C19.546 26.0956 18.9567 25.4295 19.5564 25.2985C20.1664 25.1675 21.2211 25.8008 21.7587 26.041C22.6996 26.4559 23.6302 26.9363 24.4987 27.5041L25.543 25.6479C23.93 24.5232 21.8621 23.5296 19.939 23.2348C18.843 23.0601 17.6849 23.3003 17.3127 24.556C16.9818 25.637 17.5092 26.7289 18.1089 27.5806C19.5254 29.5787 21.7277 30.5396 23.3717 32.2648C23.7232 32.6251 24.1471 33.051 24.3539 33.5533C24.5711 34.0337 24.5194 34.0665 24.0334 34.0665C22.7513 34.0665 21.1487 33.0073 20.1044 32.3085L19.0601 34.1647C20.642 35.1911 23.289 36.7962 25.2225 36.1192ZM36.689 19.0856C36.9165 18.8453 36.9165 18.4523 36.689 18.223L35.3449 16.8035C35.2366 16.6933 35.092 16.6317 34.9416 16.6317C34.7912 16.6317 34.6467 16.6933 34.5384 16.8035L33.4838 17.9172L35.6344 20.1884L36.689 19.0856ZM26.5149 25.2766V27.5478H28.6655L35.0243 20.8326L32.8737 18.5615L26.5149 25.2766Z" fill="white"/>
</svg>
