<svg width="41" height="41" viewBox="0 0 41 41" fill="none" xmlns="http://www.w3.org/2000/svg">
<path d="M20.5 0C9.17807 0 0 9.17807 0 20.5C0 31.8219 9.17807 41 20.5 41C31.8219 41 41 31.8219 41 20.5C41 9.17807 31.8219 0 20.5 0Z" fill="#40B3E0"/>
<path d="M30.475 11.7925L26.8133 30.2535C26.8133 30.2535 26.3013 31.5338 24.8931 30.9193L16.4436 24.4413L13.3711 22.9563L8.19903 21.2151C8.19903 21.2151 7.4053 20.9336 7.32842 20.3191C7.25155 19.7045 8.22466 19.3717 8.22466 19.3717L28.7849 11.3063C28.7849 11.3063 30.4748 10.5638 30.4748 11.7928" fill="white"/>
<path d="M15.7943 30.046C15.7943 30.046 15.5477 30.0229 15.2402 29.0498C14.9332 28.0769 13.3712 22.956 13.3712 22.956L25.7894 15.0699C25.7894 15.0699 26.5064 14.6346 26.4808 15.0699C26.4808 15.0699 26.6087 15.1468 26.2245 15.5052C25.8406 15.8638 16.4694 24.2876 16.4694 24.2876" fill="#D2E5F1"/>
<path d="M19.6834 26.9245L16.3414 29.9717C16.3414 29.9717 16.08 30.1699 15.7943 30.0457L16.4343 24.3857" fill="#B5CFE4"/>
</svg>
